<svg xmlns="http://www.w3.org/2000/svg" width="21.171" height="19.204" viewBox="0 0 21.171 19.204">
    <path id="prefix___x31__1_" fill="#2f5dc3" d="M40.456 56.793L38.241 50.2a1.677 1.677 0 0 0-1.59-1.142h-3.239a10.717 10.717 0 0 0 1.576-4.23 5.03 5.03 0 1 0-10.059 0 10.646 10.646 0 0 0 1.576 4.23h-3.238a1.675 1.675 0 0 0-1.59 1.142l-2.216 6.587A1.678 1.678 0 0 0 21.051 59h17.82a1.673 1.673 0 0 0 1.585-2.211zm-10.5-14.211a2.248 2.248 0 1 1-2.248 2.248 2.252 2.252 0 0 1 2.251-2.248zm9.109 14.888a.247.247 0 0 1-.2.1H21.046a.247.247 0 0 1-.2-.1.233.233 0 0 1-.032-.219l2.216-6.592a.246.246 0 0 1 .233-.169h3.965a.684.684 0 0 0 .1-.009c1.133 1.864 2.266 3.408 2.357 3.536a.334.334 0 0 0 .539 0c.1-.128 1.224-1.672 2.357-3.531a.443.443 0 0 0 .078 0h3.993a.25.25 0 0 1 .233.169L39.1 57.25a.233.233 0 0 1-.032.219z" transform="translate(-19.373 -39.8)"/>
</svg>
