<svg xmlns="http://www.w3.org/2000/svg" width="307" height="92" viewBox="0 0 307 92">
    <defs>
        <clipPath id="prefix__clip-path">
            <path id="prefix__Rectangle_49" fill="#eff7ff" d="M10 0h287a10 10 0 0 1 10 10v82H0V10A10 10 0 0 1 10 0z" data-name="Rectangle 49" transform="translate(-.063 -.066)"/>
        </clipPath>
        <clipPath id="prefix__clip-path-2">
            <path id="prefix__Path_14" d="M80.535 26.692a5.3 5.3 0 0 1-4.917-4.175c-1.021-4.175 1.67-4.361 1.577-7.422s3.155-4.361 6.68-3.8 3.34-2.6 7.051-2.783 5.938.835 7.515 3.526c1.577 2.6 5.66 3.155 6.587 6.123.742 2.134-.557 5.01-1.021 7.979-.464 3.062.371 3.247-.278 5.2a6.94 6.94 0 0 1-5.567 5.01 14.852 14.852 0 0 0-5.2 2.505z" data-name="Path 14" transform="translate(-75.386 -8.486)"/>
        </clipPath>
        <clipPath id="prefix__clip-path-3">
            <path id="prefix__Path_18" d="M80.094 67.814l-1.3 1.113s-5.66 22.638-5.288 43.421a257.1 257.1 0 0 0 3.433 37.483s7.33 2.876 13.175-2.319c0 0-3.526-14.567-2.783-25.143s4.546-26.814 4.546-26.814l1.763-24.308z" data-name="Path 18" transform="translate(-73.489 -67.814)"/>
        </clipPath>
        <clipPath id="prefix__clip-path-4">
            <path id="prefix__Path_21" d="M83.469 71.121l-.093.928s.186 17.721 2.134 29.411 13.268 28.762 21.989 41.751c0 0 9.092.464 12.989-6.773 0 0-14.567-26.164-16.144-38.782-2.505-19.762-2.505-24.958-3.99-27.927l-10.206.742z" data-name="Path 21" transform="translate(-83.376 -69.73)"/>
        </clipPath>
        <clipPath id="prefix__clip-path-5">
            <path id="prefix__Path_26" d="M104.919 90.557a201.415 201.415 0 0 1-.742-29.226c.093-1.206.186-2.134.278-3.8a48.565 48.565 0 0 1 1.484-9.278c1.67-6.4-.278-14.567-4.175-15.494s-7.608-1.392-7.608-1.392-9 12.9-10.02 23.01c-1.021 10.02 1.021 78.121 1.021 78.121l23.381-1.392c-.001-.097-2.877-36.006-3.619-40.549z" data-name="Path 26" transform="translate(-83.85 -31.363)"/>
        </clipPath>
        <clipPath id="prefix__clip-path-6">
            <path id="prefix__Path_33" d="M94.665 32.582c-1.021.371-1.484 2.32-1.021 7.7a17.906 17.906 0 0 0 3.062 9.185c.742 1.3 6.309 9.649 5.567 10.67s-6.773 8.814-7.144 9.278c-.371.557-5.288 5.474-5.288 5.474l3.8 5.288S106.634 68.21 107.84 67c1.3-1.3 5.01-3.9 3.618-8.257-1.392-4.453-5.66-15.494-6.031-16.329-.463-.739-3.803-12.522-10.762-9.832z" data-name="Path 33" transform="translate(-89.841 -32.184)"/>
        </clipPath>
        <clipPath id="prefix__clip-path-7">
            <path id="prefix__Path_51" d="M114.125 8.967a7.9 7.9 0 0 0-7.608 5.01c-2.412 5.474-2.6 17.721-2.412 20.876.186 3.247.557 23.845.557 23.845h30.154s.371-24.308.186-29.69-.742-13.082-5.2-17.814c-4.546-4.639-8.814-5.2-11.876-4.453-3.059.927-3.801 2.226-3.801 2.226z" data-name="Path 51" transform="translate(-104.051 -6.468)"/>
        </clipPath>
        <clipPath id="prefix__clip-path-8">
            <path id="prefix__Path_54" d="M102.864 71.406l-1.948 2.134s-.649 39.9.557 48.153 4.546 34.978 4.546 34.978 6.309 6.216 14.381-.186l-3.433-61.513-3.34-22.917z" data-name="Path 54" transform="translate(-100.741 -71.406)"/>
        </clipPath>
        <clipPath id="prefix__clip-path-9">
            <path id="prefix__Path_57" d="M129.438 73.022s-1.763 30.618-.278 47.6c1.484 17.072 3.618 35.813 3.618 35.813s-4.361 7.144-15.587.835c0 0-5.567-35.257-6.68-48.8s-1.577-35.257-1.577-35.257z" data-name="Path 57" transform="translate(-108.934 -73.022)"/>
        </clipPath>
        <clipPath id="prefix__clip-path-10">
            <path id="prefix__Path_71" d="M108.438 12.749s-2.041 11.783-.186 16.422 7.051 5.752 11.783-.835c0 0 2.969.464 2.876-3.155 0-3.618-2.876-2.227-2.876-2.227a10.1 10.1 0 0 1-1.948-5.845 16.157 16.157 0 0 1-9.649-4.36z" data-name="Path 71" transform="translate(-107.474 -12.749)"/>
        </clipPath>
        <clipPath id="prefix__clip-path-11">
            <path id="prefix__Path_78" d="M208.265 45.316s-2.32-2.227-4.546-4.546.649-6.866 4.732-6.4 14.2 17.072 18.556 16.886 19.113-9.092 19.113-9.092a5.578 5.578 0 0 1 4.732 5.474s-15.773 11.041-21.8 12.154c-6.128 1.108-14.293-7.982-20.787-14.476z" data-name="Path 78" transform="translate(-202.943 -34.335)"/>
        </clipPath>
        <clipPath id="prefix__clip-path-12">
            <path id="prefix__Path_81" d="M223.338 32.5a5.863 5.863 0 0 0 3.618-2.505c1.021-1.948 2.6-7.886-1.392-11.5-3.99-3.526-10.113-4.917-14.938-4.453s-10.763 4.732-11.69 10.113c-.928 5.288-.742 9.278-6.031 14.567-5.2 5.288.649 8.443-.557 11.412-1.3 2.969-11.226 1.67-9.742 11.6 1.392 9.927 14.659 10.113 23.473 10.855s13.268-3.247 12.711-8.35 3.155-6.773 2.876-9.927c-.371-3.155-2.783-3.155-1.3-7.515s-1.113-4.732 0-7.33c1.024-2.514 2.972-6.967 2.972-6.967z" data-name="Path 81" transform="translate(-182.457 -13.95)"/>
        </clipPath>
        <clipPath id="prefix__clip-path-13">
            <path id="prefix__Path_87" d="M222.108 67.59s2.32 12.525 1.021 21.989c-1.856 13.824-3.618 16.144-3.34 21.061.278 5.2-28.02 5.01-28.669-2.412-.835-9-3.526-37.112 1.113-41.937 5.567-5.845 26.813-2.969 29.875 1.299z" data-name="Path 87" transform="translate(-189.584 -62.994)"/>
        </clipPath>
        <clipPath id="prefix__clip-path-14">
            <path id="prefix__Path_90" d="M195.094 60.773c-1.021-5.1-4.732-12.8-6.495-20.968a17.448 17.448 0 0 1 4.546-5.01A5.079 5.079 0 0 1 195 33.774a16.635 16.635 0 0 1 4.361-1.021h.093c3.247-.186 7.237.371 12.525.278 4.917.742 7.422 3.99 8.443 8.443a26.223 26.223 0 0 1 3.34 5.381c1.484 3.433-2.041 8.165-2.041 8.165a32.262 32.262 0 0 1-.65 7.144c-.835 4.825-.835 10.484-.464 11.69.464 1.206 2.32 11.412 2.6 12.247s-5.1 4.639-7.979 4.825c0 0-.278.093-.557-.464-.186-.371-.649-3.155-1.206-5.288-.557 1.763-1.3 3.711-2.227 5.938a1.745 1.745 0 0 1-1.392.835c-1.113.278-13.082-1.67-17.907-7.886 0 0-1.021-1.113 0-3.526 0 .093 5.753-7.051 3.155-19.762z" data-name="Path 90" transform="translate(-188.599 -32.715)"/>
        </clipPath>
        <clipPath id="prefix__clip-path-15">
            <path id="prefix__Path_93" d="M199.656 25.558l-.093 2.783S199.1 34 199.1 34.836c-.093.742-1.392 1.484-3.433 1.763-.928.093.093 1.763 1.948 3.433C209.769 51.072 212 38.454 209.4 36.97c-.65-.371-1.392-.278-1.948-1.113-.928-1.113-.464-5.752.557-6.866 1.017-1.021-8.353-3.433-8.353-3.433z" data-name="Path 93" transform="translate(-195.318 -25.558)"/>
        </clipPath>
        <clipPath id="prefix__clip-path-16">
            <path id="prefix__Path_98" d="M213.764 18.495s2.505 19.391-6.495 20.041c-4.639.186-7.33-6.4-7.33-6.4s-3.526-.093-3.618-4.175c-.093-3.99 3.99-2.412 3.99-2.412s.371-2.969.371-5.01c.093-1.951 8.35.461 13.082-2.044z" data-name="Path 98" transform="translate(-196.32 -18.495)"/>
        </clipPath>
        <clipPath id="prefix__clip-path-17">
            <path id="prefix__Path_102" d="M191.419 41.005s1.856-2.691 3.711-5.288 6.866-.464 7.051 3.618-14.473 16.886-13.638 21.065c.835 4.268 11.969 17.628 11.969 17.628s1.856 4.453-3.247 5.381c0 0-14.288-13.824-16.329-19.669-1.95-5.756 5.195-15.22 10.483-22.735z" data-name="Path 102" transform="translate(-180.607 -34.581)"/>
        </clipPath>
        <clipPath id="prefix__clip-path-18">
            <path id="prefix__Path_113" d="M191.162 70.807s-1.113 27.927-2.319 43.792-4.546 39.153-4.546 39.153-1.3 4.917-11.319.835c0 0 .742-24.68.928-32.937.278-11.969.65-47.875.65-47.875z" data-name="Path 113" transform="translate(-172.978 -70.807)"/>
        </clipPath>
        <clipPath id="prefix__clip-path-19">
            <path id="prefix__Path_116" d="M163.144 69.849s.093 17.535-.186 21.618-1.113 62.812-1.113 62.812 5.01 5.474 13.546 1.763l6.124-82.482z" data-name="Path 116" transform="translate(-161.845 -69.849)"/>
        </clipPath>
        <clipPath id="prefix__clip-path-20">
            <path id="prefix__Path_120" d="M176.875 28.767s-.186.371-2.32.649-11.412 1.392-12.525 4.917 3.154 25.329 2.505 30.154c-.557 4.732-2.6 29.782-2.6 29.782s19.3 8.907 35.906 1.113c0 0-.464-10.484-.278-18.556s1.206-9.464 1.392-16.7-3.618-27.092-5.474-27.649-7.515-1.856-10.206-3.34c-2.781-1.577-6.4-.37-6.4-.37z" data-name="Path 120" transform="translate(-161.844 -28.326)"/>
        </clipPath>
        <clipPath id="prefix__clip-path-21">
            <path id="prefix__Path_125" d="M186.317 15.685s.928 18.649-6.309 16.979c-7.237-1.577-7.979-6.495-7.979-6.495s-2.134-.278-1.856-3.247 1.67-2.505 2.227-2.412a8.446 8.446 0 0 0 3.526-1.484c.278-.464 4.175-.464 5.2-4.361a8.314 8.314 0 0 0 5.191 1.02z" data-name="Path 125" transform="translate(-170.148 -14.664)"/>
        </clipPath>
        <clipPath id="prefix__clip-path-22">
            <path id="prefix__Path_129" d="M160.3 41.111s5.2-9.649 8.257-10.02 4.639.649 5.474 2.876c2.783 8.072-7.237 26.721-7.237 26.721s-8.536.464-13.453-5.938z" data-name="Path 129" transform="translate(-153.346 -31.016)"/>
        </clipPath>
        <clipPath id="prefix__clip-path-23">
            <path id="prefix__Path_135" d="M132.115 70.942l-.557 92.78s4.917 3.9 12.34.278l2.876-79.142 5.567 78.4s5.01 5.1 12.989 0l-.464-93.708z" data-name="Path 135" transform="translate(-131.559 -69.55)"/>
        </clipPath>
        <clipPath id="prefix__clip-path-24">
            <path id="prefix__Path_140" d="M133.814 87.541c.649 23.845-2.134 59.936-2.134 59.936 1.763-1.856 7.33-3.155 9.092-4.082a17.506 17.506 0 0 1 4.175-1.577v-68.1c-.093-.742-.371-13.268-.186-16.7a20.769 20.769 0 0 1 0-2.412v-4.363c.093-5.66 1.3-12.8 1.3-13.824v-.093a12.968 12.968 0 0 1 .928-9.092c-.464.186-5.845.835-7.794 1.484-1.67.649-3.526 1.021-5.474 2.505a4.861 4.861 0 0 0-1.392 1.392c-.093.093-.093.278-.186.557 0 0-7.7 19.669-8.814 28.484-1.205 8.628 10.485 25.885 10.485 25.885z" data-name="Path 140" transform="translate(-123.243 -27.233)"/>
        </clipPath>
        <clipPath id="prefix__clip-path-25">
            <path id="prefix__Path_166" d="M137.4 15.7s-1.113-.186.186 8.814 6.68 10.02 9.371 9.835c4.732-.371 8.257-8.443 9.092-18.556 0 0-2.134-.928-2.6-5.381.097.003-6.954 8.353-16.049 5.288z" data-name="Path 166" transform="translate(-136.958 -10.415)"/>
        </clipPath>
        <style>
            .prefix__cls-3{fill:#0542bf}.prefix__cls-38,.prefix__cls-4{fill:#95cdfd}.prefix__cls-42,.prefix__cls-5{fill:#6aaef2}.prefix__cls-39,.prefix__cls-9{fill:#063985}.prefix__cls-15{fill:#c0e4f9}.prefix__cls-16,.prefix__cls-37{fill:#d4edff}.prefix__cls-18,.prefix__cls-40{fill:#fec3c0}.prefix__cls-20,.prefix__cls-58{fill:#147cde}.prefix__cls-20,.prefix__cls-21,.prefix__cls-22,.prefix__cls-23,.prefix__cls-37,.prefix__cls-38,.prefix__cls-39,.prefix__cls-40,.prefix__cls-42{fill-rule:evenodd}.prefix__cls-21{fill:#98b6d8}.prefix__cls-22{fill:#144bc6}.prefix__cls-23{fill:#6c83a2}.prefix__cls-24{fill:#f19596}.prefix__cls-26{fill:#0b4e9e}.prefix__cls-28{fill:#00b290}.prefix__cls-30{fill:#00ab90}.prefix__cls-31{fill:#00be9c}.prefix__cls-33{fill:#00b596}.prefix__cls-34{fill:#fff}.prefix__cls-35{fill:#e9f5ff}
        </style>
    </defs>
    <g id="prefix__Mask_Group_1" clip-path="url(#prefix__clip-path)" data-name="Mask Group 1" transform="translate(.063 .066)">
        <g id="prefix__medical_team-01" data-name="medical team-01" transform="translate(9.197 4.979)">
            <g id="prefix__Group_15" data-name="Group 15" transform="translate(0 107.594)">
                <g id="prefix__Group_14" data-name="Group 14" transform="translate(14.288)">
                    <g id="prefix__Group_13" data-name="Group 13">
                        <path id="prefix__Path_11" d="M69.73 76.152a2.3 2.3 0 0 1 2.32-2.32h11.133a2.3 2.3 0 0 1 2.32 2.32V79.4h1.948v-4.639a2.891 2.891 0 0 0-2.876-2.876H70.75a2.891 2.891 0 0 0-2.876 2.876V79.4h1.948v-3.248z" class="prefix__cls-3" data-name="Path 11" transform="translate(-67.874 -71.884)"/>
                    </g>
                </g>
                <path id="prefix__Rectangle_50" d="M0 0H34.885V33.401H0z" class="prefix__cls-4" data-name="Rectangle 50" transform="translate(0 7.144)"/>
                <path id="prefix__Rectangle_51" d="M0 0H34.885V33.401H0z" class="prefix__cls-5" data-name="Rectangle 51" transform="translate(11.134 7.144)"/>
            </g>
            <g id="prefix__Group_35" data-name="Group 35" transform="translate(20.876 9.318)">
                <g id="prefix__Group_17" data-name="Group 17" transform="translate(5.057)">
                    <path id="prefix__Path_12" fill="#3e4a60" d="M80.535 26.692a5.3 5.3 0 0 1-4.917-4.175c-1.021-4.175 1.67-4.361 1.577-7.422s3.155-4.361 6.68-3.8 3.34-2.6 7.051-2.783 5.938.835 7.515 3.526c1.577 2.6 5.66 3.155 6.587 6.123.742 2.134-.557 5.01-1.021 7.979-.464 3.062.371 3.247-.278 5.2a6.94 6.94 0 0 1-5.567 5.01 14.852 14.852 0 0 0-5.2 2.505z" data-name="Path 12" transform="translate(-75.386 -8.486)"/>
                    <g id="prefix__Group_16" clip-path="url(#prefix__clip-path-2)" data-name="Group 16">
                        <path id="prefix__Path_13" fill="#283851" d="M107.251 26.178s-3.711 2.412-7.886-1.392c-4.175-3.711-9.835-5.752-12.34-9.464s-9.834 4.078-11.968 2.691l2.505 6.773 7.422 5.845 7.7 4.732 7.051 1.206 6.495-4.546z" data-name="Path 13" transform="translate(-75.567 -5.281)"/>
                    </g>
                </g>
                <path id="prefix__Path_15" d="M111.151 82.386l3.8 23.659s-20.783-5.01-42.772-.742l5.381-28.391z" class="prefix__cls-9" data-name="Path 15" transform="translate(-72.091 29.157)"/>
                <g id="prefix__Group_19" data-name="Group 19" transform="translate(2.116 91.966)">
                    <path id="prefix__Path_16" fill="#003da8" d="M80.094 67.814l-1.3 1.113s-5.66 22.638-5.288 43.421a257.1 257.1 0 0 0 3.433 37.483s7.33 2.876 13.175-2.319c0 0-3.526-14.567-2.783-25.143s4.546-26.814 4.546-26.814l1.763-24.308z" data-name="Path 16" transform="translate(-73.489 -67.814)"/>
                    <g id="prefix__Group_18" clip-path="url(#prefix__clip-path-3)" data-name="Group 18">
                        <path id="prefix__Path_17" fill="#00398c" d="M84.269 66.2s-7.051 32.844-5.938 43.236c1.021 10.391 12.247 35.906 12.247 35.906l5.01-59.942-.742-14.567z" data-name="Path 17" transform="translate(-70.891 -68.703)"/>
                    </g>
                </g>
                <g id="prefix__Group_21" data-name="Group 21" transform="translate(17.443 94.935)">
                    <path id="prefix__Path_19" d="M83.469 71.121l-.093.928s.186 17.721 2.134 29.411 13.268 28.762 21.989 41.751c0 0 9.092.464 12.989-6.773 0 0-14.567-26.164-16.144-38.782-2.505-19.762-2.505-24.958-3.99-27.927l-10.206.742z" class="prefix__cls-3" data-name="Path 19" transform="translate(-83.376 -69.73)"/>
                    <g id="prefix__Group_20" clip-path="url(#prefix__clip-path-4)" data-name="Group 20">
                        <path id="prefix__Path_20" fill="#1455c6" d="M89.612 69.137s-2.412 35.071 5.1 45.37c7.515 10.391 19.3 30.432 19.3 30.432l8.443-7.422-13.915-29.876-9.093-40.081-6.68-.464z" data-name="Path 20" transform="translate(-80.149 -71.178)"/>
                    </g>
                </g>
                <path id="prefix__Path_22" d="M76.194 42.317s2.227 39.153.557 46.019c0 0 10.855 5.752 28.484-.928l-4.082-44.349z" class="prefix__cls-15" data-name="Path 22" transform="translate(-69.885 10.125)"/>
                <g id="prefix__Group_23" data-name="Group 23" transform="translate(5.103 35.185)">
                    <g id="prefix__Group_22" data-name="Group 22">
                        <path id="prefix__Path_23" d="M110.58 45.658s-1.392-10.758-2.88-11.969c-1.392-1.206-11.226-2.505-11.226-2.505h-9.09s-8.072 1.67-9 2.505c-1.021.928-2.783 9.464-2.969 12.061l9.927 11.5 25.236-11.6z" class="prefix__cls-15" data-name="Path 23" transform="translate(-75.416 -31.184)"/>
                    </g>
                </g>
                <g id="prefix__Group_25" data-name="Group 25" transform="translate(18.178 35.463)">
                    <path id="prefix__Path_24" d="M104.919 90.557a201.415 201.415 0 0 1-.742-29.226c.093-1.206.186-2.134.278-3.8a48.565 48.565 0 0 1 1.484-9.278c1.67-6.4-.278-14.567-4.175-15.494s-7.608-1.392-7.608-1.392-9 12.9-10.02 23.01c-1.021 10.02 1.021 78.121 1.021 78.121l23.381-1.392c-.001-.097-2.877-36.006-3.619-40.549z" class="prefix__cls-16" data-name="Path 24" transform="translate(-83.85 -31.363)"/>
                    <g id="prefix__Group_24" clip-path="url(#prefix__clip-path-5)" data-name="Group 24">
                        <path id="prefix__Path_25" d="M95.027 34.536l-1.206.835s-1.763 4.825.928 11.69 3.9 9.371 3.433 13.36-9 16.237-9 16.237l1.206 15.216 15.312-4.268s-1.021-33.494-1.206-34.05c-.186-.649-1.856-18.37-1.856-18.37z" class="prefix__cls-15" data-name="Path 25" transform="translate(-80.917 -29.618)"/>
                    </g>
                </g>
                <path id="prefix__Path_27" d="M75.226 68.413s-3.8 11.876 2.412 10.577c1.484-.186 1.763-9.464 1.763-9.464z" class="prefix__cls-18" data-name="Path 27" transform="translate(-71.051 24.481)"/>
                <path id="prefix__Path_28" d="M81.873 35.392s.371-1.856-1.948-2.691-5.381 7.237-5.752 19.113c-.464 11.876 0 36.463 0 36.463s3.99 1.948 6.866 0z" class="prefix__cls-4" data-name="Path 28" transform="translate(-71.11 4.803)"/>
                <path id="prefix__Path_29" d="M80.01 33.438s-4.546 6.031-2.876 21.989c3.062 28.669-5.01 74.781-5.01 74.781l8.257 2.6s7.886-58.915 5.938-80.255c-.928-9.742-3.618-12.989.649-21.061a14.442 14.442 0 0 0-6.958 1.946z" class="prefix__cls-16" data-name="Path 29" transform="translate(-72.124 4.159)"/>
                <path id="prefix__Rectangle_52" d="M0 0H6.031V1.577H0z" class="prefix__cls-4" data-name="Rectangle 52" transform="rotate(180 14.721 26.639)"/>
                <path id="prefix__Path_30" d="M94.1 59.315s-4.917 2.691-6.773 4.917-1.763 5.474 1.948 5.01 8.165-6.866 8.165-6.866z" class="prefix__cls-18" data-name="Path 30" transform="translate(-64.412 19.477)"/>
                <g id="prefix__Group_27" data-name="Group 27" transform="translate(27.463 36.735)">
                    <path id="prefix__Path_31" d="M94.665 32.582c-1.021.371-1.484 2.32-1.021 7.7a17.906 17.906 0 0 0 3.062 9.185c.742 1.3 6.309 9.649 5.567 10.67s-6.773 8.814-7.144 9.278c-.371.557-5.288 5.474-5.288 5.474l3.8 5.288S106.634 68.21 107.84 67c1.3-1.3 5.01-3.9 3.618-8.257-1.392-4.453-5.66-15.494-6.031-16.329-.463-.739-3.803-12.522-10.762-9.832z" class="prefix__cls-4" data-name="Path 31" transform="translate(-89.841 -32.184)"/>
                    <g id="prefix__Group_26" clip-path="url(#prefix__clip-path-6)" data-name="Group 26">
                        <path id="prefix__Path_32" d="M104.811 35.972s5.288 18.278 4.361 23.01c-.835 4.825-21.247 20.6-21.247 20.6l3.155 2.876 14.01-9.742 8.81-10.394-4.732-19.855z" class="prefix__cls-5" data-name="Path 32" transform="translate(-90.894 -30.099)"/>
                    </g>
                </g>
                <g id="prefix__Group_28" data-name="Group 28" transform="translate(19.577 86.307)">
                    <path id="prefix__Rectangle_53" d="M0 0H13.36V2.505H0z" class="prefix__cls-5" data-name="Rectangle 53" transform="translate(.093)"/>
                    <path id="prefix__Path_34" d="M98.206 65.779s.464 9.464-1.113 11.969-6.4 2.6-8.165 2.134a5.767 5.767 0 0 1-3.99-4.453c-.186-2.041-.186-9.649-.186-9.649z" class="prefix__cls-4" data-name="Path 34" transform="translate(-84.753 -63.274)"/>
                </g>
                <g id="prefix__Group_34" data-name="Group 34" transform="translate(4.082 14.03)">
                    <g id="prefix__Group_29" data-name="Group 29" transform="translate(0 19.949)">
                        <path id="prefix__Path_35" d="M80.518 41.818a.7.7 0 0 1-1.392-.093 13.588 13.588 0 0 1 7.144-11.319l1.113.278a1.794 1.794 0 0 1-.464.835l-.371.371a12.34 12.34 0 0 0-6.03 9.928z" class="prefix__cls-20" data-name="Path 35" transform="translate(-72.354 -30.406)"/>
                        <path id="prefix__Path_36" d="M77.125 40.781a.473.473 0 1 1 .928.186s-1.948 12.247 5.2 15.309a.5.5 0 0 1-.371.928c-7.891-3.434-5.757-16.33-5.757-16.423z" class="prefix__cls-21" data-name="Path 36" transform="translate(-73.6 -24.916)"/>
                        <path id="prefix__Path_37" d="M84.329 41.164a.464.464 0 0 1 .928 0S84.143 55.453 75.7 56.1a.464.464 0 1 1 0-.928c7.608-.554 8.629-14.008 8.629-14.008z" class="prefix__cls-21" data-name="Path 37" transform="translate(-74.494 -24.742)"/>
                        <path id="prefix__Path_38" d="M78.246 42.553a.7.7 0 1 1-1.392.093 5.191 5.191 0 0 1 2.227-4.825 2.669 2.669 0 0 1 1.856-.464 2.836 2.836 0 0 1 1.856.649c1.206.835 2.041 2.6 1.763 5.2a.7.7 0 1 1-1.392-.093c.186-2.041-.371-3.34-1.206-3.9a1.783 1.783 0 0 0-1.113-.371 2.47 2.47 0 0 0-1.113.278 3.491 3.491 0 0 0-1.486 3.433z" class="prefix__cls-22" data-name="Path 38" transform="translate(-73.607 -26.595)"/>
                        <path id="prefix__Path_39" d="M82.478 50.3a1.193 1.193 0 0 0-1.113-.371 1.49 1.49 0 0 0-1.021.464 1.193 1.193 0 0 0-.371 1.113 1.49 1.49 0 0 0 .464 1.021 1.193 1.193 0 0 0 1.113.371 1.49 1.49 0 0 0 1.021-.464 1.536 1.536 0 0 0 .464-1.113 2.212 2.212 0 0 0-.557-1.021z" class="prefix__cls-23" data-name="Path 39" transform="translate(-71.901 -19.68)"/>
                        <path id="prefix__Path_40" d="M77.355 49.819a1.193 1.193 0 0 0-1.113-.371 1.49 1.49 0 0 0-1.021.464 1.536 1.536 0 0 0-.464 1.113 1.49 1.49 0 0 0 .464 1.021 1.536 1.536 0 0 0 1.113.464 1.49 1.49 0 0 0 1.021-.464 1.856 1.856 0 0 0 0-2.227z" class="prefix__cls-23" data-name="Path 40" transform="translate(-74.757 -19.944)"/>
                    </g>
                    <g id="prefix__Group_30" data-name="Group 30" transform="translate(16.074 39.734)">
                        <path id="prefix__Path_41" d="M89.557 43.239a3.436 3.436 0 0 1 2.32 1.577 3.576 3.576 0 0 1 .557 2.783 3.436 3.436 0 0 1-1.577 2.32 3.576 3.576 0 0 1-2.783.557 3.436 3.436 0 0 1-2.32-1.577 3.576 3.576 0 0 1-.557-2.783 3.436 3.436 0 0 1 1.577-2.32 3.739 3.739 0 0 1 2.783-.557z" class="prefix__cls-23" data-name="Path 41" transform="translate(-85.127 -43.17)"/>
                        <path id="prefix__Path_42" d="M90.541 45.058a2.7 2.7 0 0 0-1.67-1.113 2.519 2.519 0 0 0-1.856.371 2.7 2.7 0 0 0-1.113 1.67 2.861 2.861 0 0 0 .371 1.948 2.7 2.7 0 0 0 1.67 1.113 2.861 2.861 0 0 0 1.948-.371 2.51 2.51 0 0 0 .649-3.618z" class="prefix__cls-20" data-name="Path 42" transform="translate(-84.719 -42.762)"/>
                        <path id="prefix__Path_43" d="M89.061 45.28a1.351 1.351 0 0 0-.835-.557 1.079 1.079 0 0 0-.928.186 1.351 1.351 0 0 0-.557.835 1.288 1.288 0 0 0 .186 1.021 1.351 1.351 0 0 0 .835.557 1.288 1.288 0 0 0 1.021-.186 1.351 1.351 0 0 0 .557-.835 1.87 1.87 0 0 0-.279-1.021z" class="prefix__cls-22" data-name="Path 43" transform="translate(-84.259 -42.335)"/>
                    </g>
                    <path id="prefix__Path_44" d="M89.8 31.037a.324.324 0 0 1-.093-.186l-.093-.093a1.058 1.058 0 0 0-.557-.278 1.465 1.465 0 0 0-.649 0 4.553 4.553 0 0 0 .371.928 2.854 2.854 0 0 1 .371.835l.093.186c1.484 3.618 1.484 9.649-1.484 19.02a.529.529 0 1 0 1.021.278c3.335-10.577 3.057-17.072 1.02-20.69z" class="prefix__cls-20" data-name="Path 44" transform="translate(-67.621 -10.439)"/>
                    <g id="prefix__Group_33" data-name="Group 33" transform="translate(4.402)">
                        <g id="prefix__Group_31" data-name="Group 31" transform="translate(9.422 13.083)">
                            <path id="prefix__Path_45" d="M83.861 32.378a9.806 9.806 0 0 0-.186-2.227l2.6-4.175 4.639 1.856a10.255 10.255 0 0 0-.186 2.783c-1.207-.278-3.712-.463-6.867 1.763z" class="prefix__cls-24" data-name="Path 45" transform="translate(-83.676 -25.977)"/>
                            <path id="prefix__Path_46" d="M90.727 29.026a18.946 18.946 0 0 0 .649 3.34l-5.845 4.639c-.093 0-1.856-4.546-1.856-4.546a5.471 5.471 0 0 0 .186-1.577c3.155-2.32 5.66-2.134 6.866-1.856z" class="prefix__cls-18" data-name="Path 46" transform="translate(-83.676 -24.387)"/>
                        </g>
                        <g id="prefix__Group_32" data-name="Group 32">
                            <path id="prefix__Path_47" fill="#adaac1" d="M86.63 27.162c1.948-1.763 1.577-6.866 1.392-8.907 2.412 1.392 2.969 5.938 2.969 5.938a57.625 57.625 0 0 1-.649 7.608 8.686 8.686 0 0 1-7.886 4.639c-3.248-.092-4.456-4.268-4.826-8.54 2.227.654 6.77 1.3 9-.738z" data-name="Path 47" transform="translate(-77.579 -17.141)"/>
                            <path id="prefix__Path_48" d="M88.554 23.154c.278 4.639-1.948 4.825-1.948 4.825a11.4 11.4 0 0 1-.835 1.67 56.506 56.506 0 0 0 .649-7.608 1.8 1.8 0 0 1 2.134 1.113z" class="prefix__cls-24" data-name="Path 48" transform="translate(-73.101 -15.081)"/>
                            <path id="prefix__XMLID_303_" d="M86.648 27.558c-2.227 2.041-6.68 1.392-8.907.649a55.951 55.951 0 0 1 .093-9c.742-2.412 6.866-1.763 9.742-.835.186.093.371.093.557.186.093 2.134.367 7.237-1.485 9z" class="prefix__cls-18" transform="translate(-77.597 -17.537)"/>
                        </g>
                    </g>
                </g>
            </g>
            <g id="prefix__Group_37" data-name="Group 37" transform="translate(70.367 6.191)">
                <path id="prefix__Path_49" d="M114.125 8.967a7.9 7.9 0 0 0-7.608 5.01c-2.412 5.474-2.6 17.721-2.412 20.876.186 3.247.557 23.845.557 23.845h30.154s.371-24.308.186-29.69-.742-13.082-5.2-17.814c-4.546-4.639-8.814-5.2-11.876-4.453-3.059.927-3.801 2.226-3.801 2.226z" class="prefix__cls-26" data-name="Path 49" transform="translate(-104.051 -6.468)"/>
                <g id="prefix__Group_36" clip-path="url(#prefix__clip-path-7)" data-name="Group 36">
                    <path id="prefix__Path_50" d="M106.549 42.618s-1.113-16.886.557-25.607c.742-5.288 1.577-5.938 1.577-5.938s5.752 5.1 12.618 5.1c6.866.093 5.288 26.35 5.288 26.35l.371 16.793-18.742-1.856z" class="prefix__cls-9" data-name="Path 50" transform="translate(-102.877 -3.935)"/>
                </g>
            </g>
            <g id="prefix__Group_39" data-name="Group 39" transform="translate(65.235 106.852)">
                <path id="prefix__Path_52" d="M102.864 71.406l-1.948 2.134s-.649 39.9.557 48.153 4.546 34.978 4.546 34.978 6.309 6.216 14.381-.186l-3.433-61.513-3.34-22.917z" class="prefix__cls-28" data-name="Path 52" transform="translate(-100.741 -71.406)"/>
                <g id="prefix__Group_38" clip-path="url(#prefix__clip-path-8)" data-name="Group 38">
                    <path id="prefix__Path_53" d="M105.582 68.892c0 .371 3.062 36.555 7.794 51.307l3.9 6.216-1.3-55.019z" class="prefix__cls-30" data-name="Path 53" transform="translate(-98.078 -72.789)"/>
                </g>
            </g>
            <g id="prefix__Group_41" data-name="Group 41" transform="translate(77.935 109.357)">
                <path id="prefix__Path_55" d="M129.438 73.022s-1.763 30.618-.278 47.6c1.484 17.072 3.618 35.813 3.618 35.813s-4.361 7.144-15.587.835c0 0-5.567-35.257-6.68-48.8s-1.577-35.257-1.577-35.257z" class="prefix__cls-31" data-name="Path 55" transform="translate(-108.934 -73.022)"/>
                <g id="prefix__Group_40" clip-path="url(#prefix__clip-path-9)" data-name="Group 40">
                    <path id="prefix__Path_56" d="M117.912 71.226s4.453 49.081 9.185 65.688l-.464-45.555-1.021-20.133z" class="prefix__cls-33" data-name="Path 56" transform="translate(-103.995 -74.009)"/>
                </g>
            </g>
            <path id="prefix__Path_58" d="M121.181 29.182a7.224 7.224 0 0 0-1.577 0h-1.114l-6.49-.093h-1.206l2.691 11.226z" class="prefix__cls-34" data-name="Path 58" transform="translate(-29.978 12.167)"/>
            <path id="prefix__Path_59" d="M133.949 74.273v1.113s-.371.742-3.99 1.67a40.992 40.992 0 0 1-9.278 1.484 35.42 35.42 0 0 1-12.525-1.763 53.789 53.789 0 0 1-7.422-3.247l.186-.928z" class="prefix__cls-34" data-name="Path 59" transform="translate(-35.509 36.105)"/>
            <g id="prefix__Group_42" data-name="Group 42" transform="translate(79.142 29.937)">
                <path id="prefix__Path_60" d="M120.66 28.943c-3.526-2.783-6.309-2.505-7.794-1.856a5.771 5.771 0 0 1-.835 2.412c-1.484 2.227-2.32 1.856-2.32 1.856l5.2 5.01 8.629-4.546a6.386 6.386 0 0 1-2.88-2.876z" class="prefix__cls-18" data-name="Path 60" transform="translate(-109.712 -19.109)"/>
                <path id="prefix__Path_61" d="M119.606 31.622a3.02 3.02 0 0 1-.371-1.3c-.371-2.691-.371-8.536-.371-8.536l-3.711.928-3.526 3.99a9.235 9.235 0 0 1 .186 3.062c1.487-.65 4.175-.928 7.793 1.856z" class="prefix__cls-24" data-name="Path 61" transform="translate(-108.658 -21.787)"/>
            </g>
            <path id="prefix__Path_62" d="M139.3 34.225c-1.856-3.155-7.144-4.825-9.649-5.01l-7.794 11.134-2.691-11.319c-2.134.093-7.515 1.206-9.464 2.412-3.433 2.041-13.082 25.329-13.639 28.02-.464 2.691-2.227 10.484 2.969 11.6 5.288 1.113 7.608-7.515 7.608-7.515l-3.155 33.123a38.6 38.6 0 0 0 33.494 1.763l.186-24.03s1.577 1.577 5.1.742c3.433-.835 4.546-5.2 4.639-12.989.187-7.612-5.104-23.571-7.604-27.931z" class="prefix__cls-35" data-name="Path 62" transform="translate(-38.445 12.134)"/>
            <path id="prefix__Path_63" d="M102.607 58.7l-.371.649-.186 1.948 23.288 3.155-3.155-12.618-16.7 1.856z" class="prefix__cls-4" data-name="Path 63" transform="translate(-34.785 24.679)"/>
            <path id="prefix__Path_64" d="M118.138 39.049l7.7 31.731-20.968-2.969-7.608-31.36z" class="prefix__cls-34" data-name="Path 64" transform="translate(-37.419 16.217)"/>
            <path id="prefix__Path_65" d="M98.953 44.805a1.509 1.509 0 0 1 2.6.371c1.113 1.856 1.392 5.288.371 6.031-1.115.742-3.342-1.299-2.971-6.402z" class="prefix__cls-18" data-name="Path 65" transform="translate(-36.512 20.481)"/>
            <path id="prefix__Path_66" d="M120.068 50.945l-1.113 5.474s-9.371-.557-10.855-4.917c-1.577-4.361-.371-6.866 3.062-5.381a77.071 77.071 0 0 1 8.906 4.824z" class="prefix__cls-18" data-name="Path 66" transform="translate(-31.834 21.3)"/>
            <path id="prefix__Path_67" d="M123.557 34.117a18.361 18.361 0 0 0-1.021 9.649s5.845 10.948 5.1 13.917c-.649 2.969-12.061-.371-12.061-.371s11.041 2.6 9.835-1.113a120.942 120.942 0 0 0-5.288-11.69s.378-6.403 3.435-10.392z" class="prefix__cls-16" data-name="Path 67" transform="translate(-27.344 14.933)"/>
            <path id="prefix__Path_68" d="M114.919 52.552l11.6 9v2.968z" class="prefix__cls-4" data-name="Path 68" transform="translate(-27.706 25.074)"/>
            <g id="prefix__Group_44" data-name="Group 44" transform="translate(75.672 15.927)">
                <path id="prefix__Path_69" d="M108.438 12.749s-2.041 11.783-.186 16.422 7.051 5.752 11.783-.835c0 0 2.969.464 2.876-3.155 0-3.618-2.876-2.227-2.876-2.227a10.1 10.1 0 0 1-1.948-5.845 16.157 16.157 0 0 1-9.649-4.36z" class="prefix__cls-18" data-name="Path 69" transform="translate(-107.474 -12.749)"/>
                <g id="prefix__Group_43" clip-path="url(#prefix__clip-path-10)" data-name="Group 43">
                    <path id="prefix__Path_70" d="M107.078 15.428a9.141 9.141 0 0 0 5.938 4.546c4.546 1.3 5.567 7.144 8.907 6.4 3.433-.742 2.227-1.577 2.227-1.577l-3.9-8.814-11.6-4.732z" class="prefix__cls-24" data-name="Path 70" transform="translate(-107.691 -13.572)"/>
                </g>
            </g>
            <g id="prefix__Group_45" data-name="Group 45" transform="translate(75.555 2.167)">
                <path id="prefix__Path_72" d="M108.594 11.694a5.4 5.4 0 0 1-1.021-.464s-.371-4.175 1.021-6.123c1.484-1.948 10.855-1.484 15.309.649a11.887 11.887 0 0 1 6.123 7.422 20.742 20.742 0 0 1-.835 3.99l-.835-.649c.093 0-7.422-7.608-19.762-4.825z" class="prefix__cls-37" data-name="Path 72" transform="translate(-107.327 -3.872)"/>
                <path id="prefix__Path_73" d="M107.459 10.723s11.783-4.082 21.247 4.639a1.007 1.007 0 0 0 .742.186c.093 0 .093-.186 0-.371-2.6-5.381-15.68-9.092-21.9-6.123-.182.091-.182 1.112-.089 1.669z" class="prefix__cls-38" data-name="Path 73" transform="translate(-107.398 -1.602)"/>
                <path id="prefix__Path_74" d="M111.191 4.609h.742a.246.246 0 0 1 .278.278v1.206h1.577a.246.246 0 0 1 .278.278v.742a.246.246 0 0 1-.278.278h-1.577V8.6a.246.246 0 0 1-.278.278h-.742a.246.246 0 0 1-.278-.278V7.392h-.742a.246.246 0 0 1-.278-.278v-.742a.246.246 0 0 1 .278-.278h.742V4.887a.3.3 0 0 1 .278-.278z" class="prefix__cls-39" data-name="Path 74" transform="translate(-106.027 -3.467)"/>
            </g>
            <path id="prefix__Path_75" d="M230.677 43.613s4.825-5.938 8.814-7.886 9.185-.464 5.1 4.639a19.775 19.775 0 0 1-10.3 6.4z" class="prefix__cls-40" data-name="Path 75" transform="translate(35.974 15.364)"/>
            <g id="prefix__Group_47" data-name="Group 47" transform="translate(223.66 49.388)">
                <path id="prefix__Path_76" d="M208.265 45.316s-2.32-2.227-4.546-4.546.649-6.866 4.732-6.4 14.2 17.072 18.556 16.886 19.113-9.092 19.113-9.092a5.578 5.578 0 0 1 4.732 5.474s-15.773 11.041-21.8 12.154c-6.128 1.108-14.293-7.982-20.787-14.476z" class="prefix__cls-4" data-name="Path 76" transform="translate(-202.943 -34.335)"/>
                <g id="prefix__Group_46" clip-path="url(#prefix__clip-path-11)" data-name="Group 46">
                    <path id="prefix__Path_77" d="M203.458 35.134s16.142 16.979 21.154 19.484 14.288-2.412 19.113-5.01a73.075 73.075 0 0 0 8.536-5.288l1.856 3.155-22.454 13.545s-12.525.093-13.082-.557-16.515-15.68-16.515-15.68z" class="prefix__cls-42" data-name="Path 77" transform="translate(-203.425 -33.895)"/>
                </g>
            </g>
            <g id="prefix__Group_52" data-name="Group 52" transform="translate(191.904 17.789)">
                <g id="prefix__Group_50" data-name="Group 50">
                    <path id="prefix__Path_79" d="M223.338 32.5a5.863 5.863 0 0 0 3.618-2.505c1.021-1.948 2.6-7.886-1.392-11.5-3.99-3.526-10.113-4.917-14.938-4.453s-10.763 4.732-11.69 10.113c-.928 5.288-.742 9.278-6.031 14.567-5.2 5.288.649 8.443-.557 11.412-1.3 2.969-11.226 1.67-9.742 11.6 1.392 9.927 14.659 10.113 23.473 10.855s13.268-3.247 12.711-8.35 3.155-6.773 2.876-9.927c-.371-3.155-2.783-3.155-1.3-7.515s-1.113-4.732 0-7.33c1.024-2.514 2.972-6.967 2.972-6.967z" class="prefix__cls-26" data-name="Path 79" transform="translate(-182.457 -13.95)"/>
                    <g id="prefix__Group_49" clip-path="url(#prefix__clip-path-12)" data-name="Group 49">
                        <path id="prefix__Path_80" d="M190.028 70.434c0-.278-4.268-2.969-1.67-10.391 2.691-7.422 10.206-5.567 8.907-14.659s1.763-14.659 6.216-19.391.928-5.288 7.051-5.474a54.993 54.993 0 0 0 11.5-1.484s1.856 6.866.928 10.484-3.247 31.638-3.247 31.638l-9.649 12.8z" class="prefix__cls-9" data-name="Path 80" transform="translate(-179.672 -11.154)"/>
                    </g>
                </g>
            </g>
            <g id="prefix__Group_53" data-name="Group 53" transform="translate(210.255 11.588)">
                <path id="prefix__Path_82" d="M216.826 19.021a9.628 9.628 0 0 0 1.113-.278s1.021-4.268-.278-6.495c-1.206-2.227-10.948-3.062-15.958-1.484a12.285 12.285 0 0 0-7.33 6.866c-.278.835.278 4.175.278 4.175l.928-.557a23 23 0 0 1 21.247-2.227z" class="prefix__cls-37" data-name="Path 82" transform="translate(-194.295 -9.95)"/>
                <path id="prefix__Path_83" d="M217.8 18.148s-11.6-5.845-22.546 1.763a.762.762 0 0 1-.835 0c-.093 0 0-.186.093-.371 3.433-5.2 17.443-7.144 23.473-3.247a2.738 2.738 0 0 1-.185 1.855z" class="prefix__cls-38" data-name="Path 83" transform="translate(-194.248 -7.592)"/>
                <path id="prefix__Path_84" d="M208.007 11.046l-.835-.093a.246.246 0 0 0-.278.278l-.093 1.206-1.67-.186a.246.246 0 0 0-.278.278l-.093.835a.246.246 0 0 0 .278.278l1.67.186-.093 1.206a.246.246 0 0 0 .278.278l.835.093a.246.246 0 0 0 .278-.278l.093-1.206.835.093a.246.246 0 0 0 .278-.278l.093-.835a.246.246 0 0 0-.278-.278l-.835-.093.093-1.206q-.139-.278-.278-.278z" class="prefix__cls-39" data-name="Path 84" transform="translate(-188.538 -9.398)"/>
            </g>
            <g id="prefix__Group_55" data-name="Group 55" transform="translate(202.952 93.812)">
                <path id="prefix__Path_85" d="M222.108 67.59s2.32 12.525 1.021 21.989c-1.856 13.824-3.618 16.144-3.34 21.061.278 5.2-28.02 5.01-28.669-2.412-.835-9-3.526-37.112 1.113-41.937 5.567-5.845 26.813-2.969 29.875 1.299z" class="prefix__cls-9" data-name="Path 85" transform="translate(-189.584 -62.994)"/>
                <g id="prefix__Group_54" clip-path="url(#prefix__clip-path-13)" data-name="Group 54">
                    <path id="prefix__Path_86" fill="#063670" fill-rule="evenodd" d="M190.084 106.54s0-21.9 16.979-23.566 20.6 1.948 20.6 1.948l-2.876-20.876-13.917-1.021-22.267.742v21.9z" data-name="Path 86" transform="translate(-190.125 -62.976)"/>
                </g>
            </g>
            <g id="prefix__Group_57" data-name="Group 57" transform="translate(201.426 46.877)">
                <path id="prefix__Path_88" d="M195.094 60.773c-1.021-5.1-4.732-12.8-6.495-20.968a17.448 17.448 0 0 1 4.546-5.01A5.079 5.079 0 0 1 195 33.774a16.635 16.635 0 0 1 4.361-1.021h.093c3.247-.186 7.237.371 12.525.278 4.917.742 7.422 3.99 8.443 8.443a26.223 26.223 0 0 1 3.34 5.381c1.484 3.433-2.041 8.165-2.041 8.165a32.262 32.262 0 0 1-.65 7.144c-.835 4.825-.835 10.484-.464 11.69.464 1.206 2.32 11.412 2.6 12.247s-5.1 4.639-7.979 4.825c0 0-.278.093-.557-.464-.186-.371-.649-3.155-1.206-5.288-.557 1.763-1.3 3.711-2.227 5.938a1.745 1.745 0 0 1-1.392.835c-1.113.278-13.082-1.67-17.907-7.886 0 0-1.021-1.113 0-3.526 0 .093 5.753-7.051 3.155-19.762z" class="prefix__cls-16" data-name="Path 88" transform="translate(-188.599 -32.715)"/>
                <g id="prefix__Group_56" clip-path="url(#prefix__clip-path-14)" data-name="Group 56">
                    <path id="prefix__Path_89" fill="#c5e7fc" fill-rule="evenodd" d="M197.721 36.81s.649.928.464 5.752c-.186 4.917 1.67 6.309 3.526 11.876s-1.484 16.237-1.484 20.5-3.247 12.989-3.247 12.989l-8.072-3.34s4.361-19.669 3.062-23.473a84.6 84.6 0 0 1-2.97-13.17c-.186-1.67-1.67-4.268.742-6.031 2.505-1.67 7.979-5.1 7.979-5.1" data-name="Path 89" transform="translate(-188.721 -30.463)"/>
                </g>
            </g>
            <g id="prefix__Group_59" data-name="Group 59" transform="translate(211.84 35.782)">
                <path id="prefix__Path_91" d="M199.656 25.558l-.093 2.783S199.1 34 199.1 34.836c-.093.742-1.392 1.484-3.433 1.763-.928.093.093 1.763 1.948 3.433C209.769 51.072 212 38.454 209.4 36.97c-.65-.371-1.392-.278-1.948-1.113-.928-1.113-.464-5.752.557-6.866 1.017-1.021-8.353-3.433-8.353-3.433z" class="prefix__cls-18" data-name="Path 91" transform="translate(-195.318 -25.558)"/>
                <g id="prefix__Group_58" clip-path="url(#prefix__clip-path-15)" data-name="Group 58">
                    <path id="prefix__Path_92" fill="#f19596" fill-rule="evenodd" d="M197.257 34.429s6.031-.278 9.649 3.062 2.041-7.144 2.041-7.144a25.061 25.061 0 0 0-1.856-2.876c-.186 0-10.113-.835-10.113-.835.001.092.279 7.793.279 7.793z" data-name="Path 92" transform="translate(-194.404 -24.965)"/>
                </g>
            </g>
            <path id="prefix__Path_94" d="M196.464 32.747s-1.206.278 1.3 2.505c2.412 2.227 6.309 4.825 9.092 4.917 0 0 1.206.742.278.928a36.3 36.3 0 0 0-3.062 4.546s-.186.557-1.021.371-11.134-9.278-7.608-13.268c.093.093.65-.463 1.021.001z" class="prefix__cls-37" data-name="Path 94" transform="translate(16.188 14.076)"/>
            <path id="prefix__Path_95" d="M205.269 32.932s2.969 5.1-2.783 7.144c0 0 .186.928.649 1.021a5.925 5.925 0 0 1 2.505 3.618.715.715 0 0 0 1.113.186c.649-.464 3.526-7.33-.371-11.6 0 .099-.649-.555-1.113-.369z" class="prefix__cls-37" data-name="Path 95" transform="translate(20.466 14.262)"/>
            <g id="prefix__Group_61" data-name="Group 61" transform="translate(213.393 24.834)">
                <path id="prefix__Path_96" d="M213.764 18.495s2.505 19.391-6.495 20.041c-4.639.186-7.33-6.4-7.33-6.4s-3.526-.093-3.618-4.175c-.093-3.99 3.99-2.412 3.99-2.412s.371-2.969.371-5.01c.093-1.951 8.35.461 13.082-2.044z" class="prefix__cls-18" data-name="Path 96" transform="translate(-196.32 -18.495)"/>
                <g id="prefix__Group_60" clip-path="url(#prefix__clip-path-16)" data-name="Group 60">
                    <path id="prefix__Path_97" d="M195.183 29.691a7.553 7.553 0 0 1 5.1-1.021c2.691.557 2.134-5.474 4.453-5.845 2.412-.371 9.649-.835 10.855-2.227l-1.67-3.062-14.288 2.32-.649 5.1-3.711 1.67z" class="prefix__cls-24" data-name="Path 97" transform="translate(-196.945 -19.022)"/>
                </g>
            </g>
            <path id="prefix__Path_99" d="M193.4 63.265s4.917 1.392 6.4 3.711 3.433 7.422.928 7.979c-2.412.557-5.2-2.505-6.216-4.732a19.755 19.755 0 0 0-2.505-3.99z" class="prefix__cls-40" data-name="Path 99" transform="translate(14.703 30.968)"/>
            <g id="prefix__Group_63" data-name="Group 63" transform="translate(189.036 49.769)">
                <path id="prefix__Path_100" d="M191.419 41.005s1.856-2.691 3.711-5.288 6.866-.464 7.051 3.618-14.473 16.886-13.638 21.065c.835 4.268 11.969 17.628 11.969 17.628s1.856 4.453-3.247 5.381c0 0-14.288-13.824-16.329-19.669-1.95-5.756 5.195-15.22 10.483-22.735z" class="prefix__cls-4" data-name="Path 100" transform="translate(-180.607 -34.581)"/>
                <g id="prefix__Group_62" clip-path="url(#prefix__clip-path-17)" data-name="Group 62">
                    <path id="prefix__Path_101" d="M203.14 34.632s-9.556 12.34-12.9 17.814-3.9 11.783 1.484 18.556 11.5 14.288 11.5 14.288l-2.412 1.763s-7.7-.835-11.6-7.608c-3.99-6.773-13.732-20.041-13.732-20.041l8.721-18 11.226-7.33 4.175-.557z" class="prefix__cls-42" data-name="Path 101" transform="translate(-183.421 -35.166)"/>
                </g>
            </g>
            <path id="prefix__Path_103" d="M153.78 46.147l-1.392 1.953a15.971 15.971 0 0 0 5.288 4.361 13.946 13.946 0 0 0 8.443 1.67l.649-2.134z" class="prefix__cls-34" data-name="Path 103" transform="translate(-7.094 21.551)"/>
            <path id="prefix__Path_104" d="M187.651 88.685s0-9 .186-16.886-.464-24.216-.464-24.216-4.546 1.021-4.639 2.041c0 1.021.835 47.689.835 47.689s2.134 4.361 4.175.464c2.134-3.896-.093-9.092-.093-9.092z" class="prefix__cls-24" data-name="Path 104" transform="translate(9.6 22.341)"/>
            <g id="prefix__Group_64" data-name="Group 64" transform="translate(173.87 89.316)">
                <path id="prefix__Path_105" d="M207.1 60.093l-36.277 9.927 6.4 23.288 36.555-9z" class="prefix__cls-3" data-name="Path 105" transform="translate(-170.823 -60.093)"/>
                <path id="prefix__Path_106" d="M204.667 61.35l-32.288 8.721 5.66 20.783 32.473-7.979z" class="prefix__cls-34" data-name="Path 106" transform="translate(-169.967 -59.402)"/>
                <path id="prefix__Path_107" d="M193.807 65.8l2.227-.557 2.319 8.35-2.227.928z" class="prefix__cls-9" data-name="Path 107" transform="translate(-158.179 -57.262)"/>
            </g>
            <path id="prefix__Path_108" d="M191.644 48.182l.464 1.856a13.269 13.269 0 0 1-12.247.649l.093-1.763z" class="prefix__cls-34" data-name="Path 108" transform="translate(8.019 22.671)"/>
            <path id="prefix__Path_109" fill="#f3f9ff" d="M190.369 43.49s-1.3-10.391-4.175-11.783c-2.969-1.392-4.732-.835-6.495.649-1.763 1.577-.371 26.442-.371 26.442s5.752 3.247 13.082-.835z" data-name="Path 109" transform="translate(7.439 13.167)"/>
            <path id="prefix__Path_110" d="M187.633 21.116s5.2.186 4.639-2.041c-.835-1.67-.649-1.206 0-3.155.557-1.948 1.3-3.99-1.3-4.639s-1.113-.742-3.34-2.783c-1.67-1.577-3.711-.557-6.124-.742s-15.957-4.176-16.235 11.133c-.742 6.031 7.794 15.68 7.794 15.68z" class="prefix__cls-9" data-name="Path 110" transform="translate(-.031 .1)"/>
            <g id="prefix__Group_77" data-name="Group 77" transform="translate(159.952 18.896)">
                <g id="prefix__Group_66" data-name="Group 66" transform="translate(17.258 87.028)">
                    <path id="prefix__Path_111" d="M191.162 70.807s-1.113 27.927-2.319 43.792-4.546 39.153-4.546 39.153-1.3 4.917-11.319.835c0 0 .742-24.68.928-32.937.278-11.969.65-47.875.65-47.875z" class="prefix__cls-28" data-name="Path 111" transform="translate(-172.978 -70.807)"/>
                    <g id="prefix__Group_65" clip-path="url(#prefix__clip-path-18)" data-name="Group 65">
                        <path id="prefix__Path_112" d="M173.837 94.843s12.711-9.185 16.886 19.948l2.041-24.216 1.021-17.721-7.515-2.227-14.01 3.433z" class="prefix__cls-30" data-name="Path 112" transform="translate(-173.373 -70.906)"/>
                    </g>
                </g>
                <g id="prefix__Group_68" data-name="Group 68" transform="translate(.001 85.543)">
                    <path id="prefix__Path_114" d="M163.144 69.849s.093 17.535-.186 21.618-1.113 62.812-1.113 62.812 5.01 5.474 13.546 1.763l6.124-82.482z" class="prefix__cls-31" data-name="Path 114" transform="translate(-161.845 -69.849)"/>
                    <g id="prefix__Group_67" clip-path="url(#prefix__clip-path-19)" data-name="Group 67">
                        <path id="prefix__Path_115" d="M162.042 92.09s14.2-3.34 16.608 23.752l2.6-20.6 2.319-22.267-7.33-1.392-14.752.649z" class="prefix__cls-33" data-name="Path 115" transform="translate(-162.042 -68.895)"/>
                    </g>
                </g>
                <path id="prefix__Path_117" d="M162.488 70.508l-.464 3.247S179.56 80.806 197 74.4l.093-2.041z" class="prefix__cls-34" data-name="Path 117" transform="translate(-161.745 16.056)"/>
                <g id="prefix__Group_73" data-name="Group 73" transform="translate(0 21.177)">
                    <g id="prefix__Group_71" data-name="Group 71">
                        <path id="prefix__Path_118" d="M176.875 28.767s-.186.371-2.32.649-11.412 1.392-12.525 4.917 3.154 25.329 2.505 30.154c-.557 4.732-2.6 29.782-2.6 29.782s19.3 8.907 35.906 1.113c0 0-.464-10.484-.278-18.556s1.206-9.464 1.392-16.7-3.618-27.092-5.474-27.649-7.515-1.856-10.206-3.34c-2.781-1.577-6.4-.37-6.4-.37z" class="prefix__cls-16" data-name="Path 118" transform="translate(-161.844 -28.326)"/>
                        <g id="prefix__Group_70" clip-path="url(#prefix__clip-path-20)" data-name="Group 70">
                            <path id="prefix__Path_119" d="M168.408 33.029c1.113.093 4.917-2.32 3.526 9.742-1.484 12.061-3.433 17.814-2.6 27.463.742 9.649 12.433 14.752 11.69 20.5-.835 5.66-6.866 7.237-7.7 6.68s-7.237-1.484-8.721-2.32-5.752-7.794-5.752-7.794 3.34-19.577 3.34-27.834c-.093-8.257-.186-11.969.464-15.773.465-3.799 5.753-10.664 5.753-10.664z" class="prefix__cls-16" data-name="Path 119" transform="translate(-163.49 -25.815)"/>
                        </g>
                    </g>
                </g>
                <g id="prefix__Group_74" data-name="Group 74" transform="translate(12.712 11.505)">
                    <path id="prefix__Path_121" d="M170.787 26.547a9.992 9.992 0 0 1-.742 3.9l6.309 5.381 2.32-5.66a8.412 8.412 0 0 1-.464-1.856 11.028 11.028 0 0 0-7.423-1.765z" class="prefix__cls-18" data-name="Path 121" transform="translate(-170.045 -19.681)"/>
                    <path id="prefix__Path_122" d="M178.078 30.622a19.285 19.285 0 0 1-.186-4.825l-2.969-3.711-4.361 2.783-.278 1.484a12.228 12.228 0 0 1 .278 2.691 10.763 10.763 0 0 1 7.516 1.578z" class="prefix__cls-24" data-name="Path 122" transform="translate(-169.913 -22.086)"/>
                </g>
                <g id="prefix__Group_76" data-name="Group 76" transform="translate(12.872)">
                    <path id="prefix__Path_123" d="M186.317 15.685s.928 18.649-6.309 16.979c-7.237-1.577-7.979-6.495-7.979-6.495s-2.134-.278-1.856-3.247 1.67-2.505 2.227-2.412a8.446 8.446 0 0 0 3.526-1.484c.278-.464 4.175-.464 5.2-4.361a8.314 8.314 0 0 0 5.191 1.02z" class="prefix__cls-18" data-name="Path 123" transform="translate(-170.148 -14.664)"/>
                    <g id="prefix__Group_75" clip-path="url(#prefix__clip-path-21)" data-name="Group 75">
                        <path id="prefix__Path_124" d="M169.267 22.575s.093 1.948 3.8 1.021 4.361-2.227 6.959-3.618c2.505-1.392 2.6-3.34 7.608-1.3V14.6l-8.35-.649-9.556 6.031z" class="prefix__cls-24" data-name="Path 124" transform="translate(-170.633 -15.059)"/>
                    </g>
                </g>
            </g>
            <path id="prefix__Path_126" d="M156.808 46.506s-5.938 7.237-4.917 12.711 16.422 18.927 16.422 18.927 3.247 10.67 10.206 8.072-6.119-13.267-6.119-13.267-11.783-12.061-10.577-15.494a43.872 43.872 0 0 1 3.618-7.422z" class="prefix__cls-18" data-name="Path 126" transform="translate(-7.432 21.749)"/>
            <g id="prefix__Group_79" data-name="Group 79" transform="translate(146.778 44.243)">
                <path id="prefix__Path_127" d="M160.3 41.111s5.2-9.649 8.257-10.02 4.639.649 5.474 2.876c2.783 8.072-7.237 26.721-7.237 26.721s-8.536.464-13.453-5.938z" class="prefix__cls-35" data-name="Path 127" transform="translate(-153.346 -31.016)"/>
                <g id="prefix__Group_78" clip-path="url(#prefix__clip-path-22)" data-name="Group 78">
                    <path id="prefix__Path_128" d="M170.063 31.761l-9.835 28.762 7.237 2.876 3.99-23.473-.928-8.443" class="prefix__cls-4" data-name="Path 128" transform="translate(-149.559 -30.759)"/>
                </g>
            </g>
            <path id="prefix__Rectangle_54" d="M0 0H7.144V1.763H0z" class="prefix__cls-4" data-name="Rectangle 54" transform="rotate(-.85 3833.868 -12454.41)"/>
            <g id="prefix__Group_90" data-name="Group 90" transform="translate(100.115)">
                <path id="prefix__Path_130" d="M135.871 24.339c0-.186-3.618-5.66-.278-10.855 0 0-2.134-3.711 2.041-7.051s7.608-4.639 14.1-3.618 8.629 3.062 8.257 5.2a9.223 9.223 0 0 1 2.227 5.66 18.267 18.267 0 0 1-1.763 8.907l-1.484 3.247z" class="prefix__cls-9" data-name="Path 130" transform="translate(-117.227 -2.474)"/>
                <path id="prefix__Path_131" d="M129.554 117.215l-.928 3.433s2.6 4.732 20.041 4.917 23.659-5.1 23.659-5.1l-8.907-44.627-20.6 2.783z" class="prefix__cls-58" data-name="Path 131" transform="translate(-120.281 37.883)"/>
                <path id="prefix__Path_132" d="M138.442 28.149l.371-.835s7.33-1.577 12.618-.557l-.649 3.155-3.526 4.639-6.495-.464-2.134-3.618z" class="prefix__cls-9" data-name="Path 132" transform="translate(-114.881 10.695)"/>
                <g id="prefix__Group_81" data-name="Group 81" transform="translate(12.891 103.975)">
                    <path id="prefix__Path_133" d="M132.115 70.942l-.557 92.78s4.917 3.9 12.34.278l2.876-79.142 5.567 78.4s5.01 5.1 12.989 0l-.464-93.708z" class="prefix__cls-9" data-name="Path 133" transform="translate(-131.559 -69.55)"/>
                    <g id="prefix__Group_80" clip-path="url(#prefix__clip-path-23)" data-name="Group 80">
                        <path id="prefix__Path_134" fill="#063670" d="M130.84 129.438l13.36-3.99 4.175-.835 19.3 5.288V67.276h-35.72z" data-name="Path 134" transform="translate(-131.954 -70.801)"/>
                    </g>
                </g>
                <path id="prefix__Path_136" d="M158.042 87.361c-.649 23.845 4.175 59.936 4.175 59.936-1.763-1.856-9.371-3.155-11.041-4.082a17.505 17.505 0 0 0-4.176-1.577V73.63c.093-.742 1.484-13.917 1.3-17.35a14.43 14.43 0 0 0-.093-1.856v-4.361c-.093-5.66-.186-12.9-.186-13.824v-.093a12.968 12.968 0 0 0-.928-9.092c.464.186 3.8.928 5.752 1.577 1.67.649 3.526 1.021 5.474 2.505a4.861 4.861 0 0 1 1.392 1.392c.093.093.093.278.186.557 0 0 7.7 19.669 8.814 28.484.928 8.531-10.669 25.792-10.669 25.792z" class="prefix__cls-16" data-name="Path 136" transform="translate(-110.173 11.047)"/>
                <path id="prefix__Path_137" d="M152.525 73.734v20.5a21.273 21.273 0 0 1-8.072 2.32 15.292 15.292 0 0 1-7.422-1.856v-3.243c0-8.721.093-15.03.093-15.03s-.371-25.051 0-30.525c.278-4.825.371-11.876.371-13.731v-.278a5.649 5.649 0 0 1 .557-2.6 8.092 8.092 0 0 1 .835-1.577c.093-.093.093-.186.186-.278l.186-.186a.091.091 0 0 0 .093-.093v1.3a142722.865 142722.865 0 0 1 .186.557c0 .093 0 .093.093.186a1.63 1.63 0 0 0 .371.464 16.384 16.384 0 0 0 4.361 3.155 1.568 1.568 0 0 0 .464.186 2.136 2.136 0 0 0 .835.278h.278c.093 0 .186-.093.278-.186a1.281 1.281 0 0 1 .371-.278c.093-.093.278-.186.371-.371.186-.093.278-.278.464-.371l.464-.464.278-.278c.093-.093.093-.186.186-.186.186-.186.278-.371.464-.557s.278-.371.464-.557c.093-.093.186-.186.186-.278.093-.093.093-.186.186-.278.186-.186.278-.371.464-.557.093-.093.186-.278.278-.371a.091.091 0 0 1 .093-.093c.186-.186.278-.371.371-.464a1.281 1.281 0 0 1 .278-.371 5.953 5.953 0 0 0 .557-.928l.093.093a.091.091 0 0 0 .093.093l.093.093c0 .093.093.186.093.278a13.524 13.524 0 0 1 .928 9.092v.093c0 .928.093 8.165.186 13.824v4.361a10.144 10.144 0 0 0 .093 1.856c.738 3.339-.654 16.514-.747 17.256z" class="prefix__cls-34" data-name="Path 137" transform="translate(-115.697 10.85)"/>
                <g id="prefix__Group_83" data-name="Group 83" transform="translate(0 38.38)">
                    <path id="prefix__Path_138" d="M133.814 87.541c.649 23.845-2.134 59.936-2.134 59.936 1.763-1.856 7.33-3.155 9.092-4.082a17.506 17.506 0 0 1 4.175-1.577v-68.1c-.093-.742-.371-13.268-.186-16.7a20.769 20.769 0 0 1 0-2.412v-4.363c.093-5.66 1.3-12.8 1.3-13.824v-.093a12.968 12.968 0 0 1 .928-9.092c-.464.186-5.845.835-7.794 1.484-1.67.649-3.526 1.021-5.474 2.505a4.861 4.861 0 0 0-1.392 1.392c-.093.093-.093.278-.186.557 0 0-7.7 19.669-8.814 28.484-1.205 8.628 10.485 25.885 10.485 25.885z" class="prefix__cls-16" data-name="Path 138" transform="translate(-123.243 -27.233)"/>
                    <g id="prefix__Group_82" clip-path="url(#prefix__clip-path-24)" data-name="Group 82">
                        <path id="prefix__Path_139" d="M128.925 29.771c.093.093 1.206 10.855 1.206 10.855l-.093-11.6z" class="prefix__cls-4" data-name="Path 139" transform="translate(-120.117 -26.246)"/>
                    </g>
                </g>
                <path id="prefix__Path_141" d="M130.689 58.236s-3.8-1.763-2.227-.742c1.577 1.113 4.453 6.031 4.453 6.031-.093-2.691-.186-4.546-.186-5.288-.093-1.763-.186-4.917-.278-8.629 0-1.67-.093-3.433-.093-5.2s-.649 7.051-1.3 8.072-1.856.186-1.3.928.931 4.828.931 4.828z" class="prefix__cls-4" data-name="Path 141" transform="translate(-120.582 20.596)"/>
                <path id="prefix__Path_142" d="M156.65 57.877s3.8-1.763 2.227-.742c-1.577 1.113-4.453 6.031-4.453 6.031.093-2.691.186-4.546.186-5.288.093-1.763.186-4.917.278-8.629 0-1.67.093-3.433.093-5.2s.649 7.051 1.3 8.072 1.856.186 1.3.928-.931 4.828-.931 4.828z" class="prefix__cls-4" data-name="Path 142" transform="translate(-106.09 20.399)"/>
                <path id="prefix__Path_143" d="M156.192 40.576l-1.948-10.948a7.338 7.338 0 0 1 1.484 1.392c.093.093.093.278.186.557.186 1.298.278 4.823.278 8.999z" class="prefix__cls-4" data-name="Path 143" transform="translate(-106.189 12.463)"/>
                <path id="prefix__Path_144" d="M156.078 43.02v1.392a.785.785 0 0 1-.928.742 31.455 31.455 0 0 0-4.082-.186.818.818 0 0 1-.835-.742v-1.67a.9.9 0 0 1 .742-.649 18.882 18.882 0 0 1 4.268.278.889.889 0 0 1 .835.835z" class="prefix__cls-4" data-name="Path 144" transform="translate(-108.395 19.204)"/>
                <path id="prefix__Path_145" d="M142.9 34.781l-2.783 36.741 4.175 7.886L148 71.522 145.5 34.6z" class="prefix__cls-9" data-name="Path 145" transform="translate(-113.959 15.196)"/>
                <g id="prefix__Group_84" data-name="Group 84" transform="translate(17.433 37.637)">
                    <path id="prefix__Path_146" d="M138.113 40.764a.8.8 0 1 1-1.577.278 15.364 15.364 0 0 1 5.474-14.288h1.3a3.13 3.13 0 0 1-.371 1.113.926.926 0 0 1-.371.464 13.96 13.96 0 0 0-4.455 12.433z" class="prefix__cls-20" data-name="Path 146" transform="translate(-133.47 -26.755)"/>
                    <path id="prefix__Path_147" d="M134.791 39.881a.512.512 0 0 1 1.021-.093s.557 14.2 9.278 15.958a.564.564 0 1 1-.186 1.113c-9.556-1.948-10.113-16.978-10.113-16.978z" class="prefix__cls-21" data-name="Path 147" transform="translate(-134.323 -19.84)"/>
                    <path id="prefix__Path_148" d="M141.937 39.282a.512.512 0 1 1 1.021-.093s2.041 16.237-7.33 18.834A.529.529 0 0 1 135.35 57c8.443-2.316 6.587-17.625 6.587-17.718z" class="prefix__cls-21" data-name="Path 148" transform="translate(-134.233 -20.169)"/>
                    <path id="prefix__Path_149" d="M136.24 41.827a.765.765 0 1 1-1.484.371c-.649-2.691.093-4.732 1.392-5.845a4.262 4.262 0 0 1 2.041-1.021 3.732 3.732 0 0 1 2.227.278c1.577.649 2.876 2.412 3.155 5.381a.84.84 0 0 1-1.67.186c-.278-2.32-1.206-3.618-2.227-4.082a2.133 2.133 0 0 0-1.3-.186 2.217 2.217 0 0 0-1.206.649 4.219 4.219 0 0 0-.928 4.269z" class="prefix__cls-22" data-name="Path 149" transform="translate(-134.474 -22.064)"/>
                    <path id="prefix__Path_150" d="M142.956 49.42a1.3 1.3 0 0 0-1.3-.186 1.437 1.437 0 0 0-1.021.742 1.3 1.3 0 0 0-.186 1.3 1.847 1.847 0 0 0 .742 1.113 1.3 1.3 0 0 0 1.3.186 1.847 1.847 0 0 0 1.113-.742 1.3 1.3 0 0 0 .186-1.3 1.793 1.793 0 0 0-.834-1.113z" class="prefix__cls-23" data-name="Path 150" transform="translate(-131.262 -14.441)"/>
                    <path id="prefix__Path_151" d="M137.091 50.018a1.3 1.3 0 0 0-1.3-.186 1.437 1.437 0 0 0-1.021.742 1.3 1.3 0 0 0-.186 1.3 1.847 1.847 0 0 0 .742 1.113 1.3 1.3 0 0 0 1.3.186 1.847 1.847 0 0 0 1.113-.742 1.3 1.3 0 0 0 .186-1.3 2.1 2.1 0 0 0-.834-1.113z" class="prefix__cls-23" data-name="Path 151" transform="translate(-134.489 -14.112)"/>
                </g>
                <g id="prefix__Group_85" data-name="Group 85" transform="translate(33.674 58.235)">
                    <path id="prefix__Path_152" d="M149.141 40.042a4.292 4.292 0 0 1 2.969 1.206 4.127 4.127 0 0 1 1.206 2.969 4.292 4.292 0 0 1-1.206 2.969 4.127 4.127 0 0 1-2.969 1.206 4.292 4.292 0 0 1-2.969-1.206 4.127 4.127 0 0 1-1.206-2.969 4.292 4.292 0 0 1 1.206-2.969 4.468 4.468 0 0 1 2.969-1.206z" class="prefix__cls-23" data-name="Path 152" transform="translate(-144.966 -40.042)"/>
                    <path id="prefix__Path_153" d="M150.781 41.715a2.878 2.878 0 0 0-2.041-.835 2.728 2.728 0 0 0-2.041.835 2.878 2.878 0 0 0-.835 2.041 2.943 2.943 0 0 0 .836 2.044 2.878 2.878 0 0 0 2.041.835 2.943 2.943 0 0 0 2.041-.835 2.878 2.878 0 0 0 .835-2.041 3.13 3.13 0 0 0-.836-2.044z" class="prefix__cls-20" data-name="Path 153" transform="translate(-144.472 -39.581)"/>
                    <path id="prefix__Path_154" d="M149.267 42.242a1.355 1.355 0 0 0-2.041 0 1.486 1.486 0 1 0 2.041 0z" class="prefix__cls-22" data-name="Path 154" transform="translate(-143.978 -39.087)"/>
                </g>
                <path id="prefix__Path_155" d="M146.6 26.713a.324.324 0 0 1-.093-.186.091.091 0 0 1-.093-.093 4.523 4.523 0 0 0-.649-.278c-.186 0-.742.093-.742.093s.371.649.649 1.021c.186.278.557.742.649.928l.093.186c2.505 3.711 3.8 10.484 2.6 21.711 0 .371.186.649.557.649s.649-.186.649-.557c1.3-12.619-.555-19.763-3.62-23.474z" class="prefix__cls-20" data-name="Path 155" transform="translate(-111.259 10.554)"/>
                <g id="prefix__Group_86" data-name="Group 86" transform="translate(24.86 30.122)">
                    <path id="prefix__Path_156" d="M148.693 30.164a9.94 9.94 0 0 1-.557-2.505 19.648 19.648 0 0 1 .371-5.381l-8.629-.371a20.868 20.868 0 0 1 .278 6.773v.093a14.313 14.313 0 0 1 8.537 1.391z" class="prefix__cls-24" data-name="Path 156" transform="translate(-138.951 -21.906)"/>
                    <path id="prefix__Path_157" d="M140.486 26.39a14.008 14.008 0 0 1-1.206 3.9l5.567 9.464 5.66-9.371a7.226 7.226 0 0 1-1.484-2.505 13.879 13.879 0 0 0-8.537-1.488z" class="prefix__cls-18" data-name="Path 157" transform="translate(-139.28 -19.524)"/>
                </g>
                <path id="prefix__Path_158" d="M135.988 17.483l2.412 5.752 17.257-.278 2.6-5.474-22.084-.183z" class="prefix__cls-9" data-name="Path 158" transform="translate(-116.231 5.68)"/>
                <g id="prefix__Group_87" data-name="Group 87" transform="translate(21.983 37.359)">
                    <path id="prefix__Path_159" d="M150.135 36.317A18.494 18.494 0 0 1 148 41.791a17.013 17.013 0 0 0-1.67-5.01 6.242 6.242 0 0 0-.649-1.021c-.186-.278-.371-.464-.557-.742-.093-.093-.186-.186-.186-.278-.093-.186-.278-.278-.464-.464a8.408 8.408 0 0 0-1.484-1.021c.093 0 .186-.093.278-.186a1.281 1.281 0 0 1 .371-.278c.093-.093.278-.186.371-.371.186-.093.278-.278.464-.371s.278-.278.464-.464l.278-.278.186-.186c.186-.186.278-.371.464-.557s.278-.371.464-.557c.093-.093.186-.186.186-.278.093-.093.186-.186.186-.278.186-.186.278-.371.464-.557a7.077 7.077 0 0 0 .742-1.021 6.708 6.708 0 0 0 .835-1.3l.093.093a.091.091 0 0 0 .093.093l.093.093c0 .093.093.186.186.278a13.715 13.715 0 0 1 .927 9.187z" class="prefix__cls-58" data-name="Path 159" transform="translate(-134.362 -26.575)"/>
                    <path id="prefix__Path_160" d="M147.714 34.317c.093 1.021.278 3.155-.557 4.361a2.233 2.233 0 0 1-2.227.928 5.059 5.059 0 0 1-2.505-.928 6.3 6.3 0 0 1-1.948-2.32 10.927 10.927 0 0 1 3.618-5.381.341.341 0 0 0 .278-.093 7.949 7.949 0 0 1 3.341 3.433z" class="prefix__cls-9" data-name="Path 160" transform="translate(-135.745 -24.204)"/>
                    <path id="prefix__Path_161" d="M145.775 33.118c-.186.186-.464.278-.649.557l-.557.557c-.186.186-.371.464-.557.649a14.862 14.862 0 0 0-1.856 3.618 18.551 18.551 0 0 0-.742 3.062s-3.34-4.268-3.9-8.443a5.291 5.291 0 0 1-.093-1.206v-.278a6.351 6.351 0 0 1 .464-2.505 8.092 8.092 0 0 1 .835-1.577c.093-.093.093-.186.186-.278l.186-.186a.091.091 0 0 0 .093-.093v1.577c0 .093.093.186.186.371a.091.091 0 0 0 .093.093 13.4 13.4 0 0 0 4.732 3.618 6.4 6.4 0 0 0 .928.371h.186a1.242 1.242 0 0 0 .465.093z" class="prefix__cls-58" data-name="Path 161" transform="translate(-137.424 -26.345)"/>
                </g>
                <path id="prefix__Path_162" d="M138.666 14.587s-.742-1.113-2.691-.371-.649 6.866 1.021 6.959a7.039 7.039 0 0 0 2.134-.186z" class="prefix__cls-24" data-name="Path 162" transform="translate(-116.775 3.845)"/>
                <path id="prefix__Path_163" d="M148.979 14.587s.742-1.113 2.691-.371.649 6.866-1.021 6.959a8.593 8.593 0 0 1-2.691-.371z" class="prefix__cls-24" data-name="Path 163" transform="translate(-109.646 3.845)"/>
                <g id="prefix__Group_89" data-name="Group 89" transform="translate(21.261 12.308)">
                    <path id="prefix__Path_164" d="M137.4 15.7s-1.113-.186.186 8.814 6.68 10.02 9.371 9.835c4.732-.371 8.257-8.443 9.092-18.556 0 0-2.134-.928-2.6-5.381.097.003-6.954 8.353-16.049 5.288z" class="prefix__cls-18" data-name="Path 164" transform="translate(-136.958 -10.415)"/>
                    <g id="prefix__Group_88" clip-path="url(#prefix__clip-path-25)" data-name="Group 88">
                        <path id="prefix__Path_165" d="M136.167 20.384s1.948.928 6.773-.186a34.116 34.116 0 0 0 9.371-4.175s3.247 4.917 4.453 5.752l.742-6.495-3.062-6.123-9.556 4.917-7.7.278z" class="prefix__cls-24" data-name="Path 165" transform="translate(-137.393 -11.106)"/>
                    </g>
                </g>
                <path id="prefix__Path_167" d="M136.766 60.871l-5.566 9.835 1.206 1.67 5.66-10.02z" class="prefix__cls-4" data-name="Path 167" transform="translate(-118.865 29.651)"/>
                <path id="prefix__Path_168" d="M149.883 60.871l5.567 9.835-1.206 1.67-5.567-10.02z" class="prefix__cls-4" data-name="Path 168" transform="translate(-109.251 29.651)"/>
            </g>
            <text id="prefix___0B4E9E" data-name="0B4E9E" font-family="Helvetica" font-size="1px" transform="translate(91.448 26.943)">
                <tspan x="0" y="0">0B4E9E</tspan>
            </text>
        </g>
    </g>
</svg>
