<svg xmlns="http://www.w3.org/2000/svg" width="36" height="36" viewBox="0 0 36 36">
    <defs>
        <clipPath id="prefix__clip-path">
            <circle id="prefix__Ellipse_2" cx="18" cy="18" r="18" fill="#ebebeb" data-name="Ellipse 2" transform="translate(-.044 .451)"/>
        </clipPath>
    </defs>
    <g id="prefix__Mask_Group_3" clip-path="url(#prefix__clip-path)" data-name="Mask Group 3" transform="translate(.044 -.451)">
        <g id="prefix__IG-01" fill-rule="evenodd" transform="translate(.182)">
            <path id="prefix__Path_171" fill="#fff" d="M.384 18.266a17.956 17.956 0 1 1 35.91 0 17.956 17.956 0 1 1-35.91 0z" data-name="Path 171" transform="translate(-.384 -.128)"/>
            <path id="prefix__Path_172" fill="#0a315f" d="M24.9 22.5a2.825 2.825 0 1 0-2.825 2.825A2.84 2.84 0 0 0 24.9 22.5zm1.549 0a4.376 4.376 0 0 1-4.375 4.375A4.376 4.376 0 0 1 17.7 22.5a4.376 4.376 0 0 1 4.375-4.375 4.264 4.264 0 0 1 4.376 4.375zm1.276-4.557a1 1 0 1 1-1-1 .956.956 0 0 1 1 1zm-5.649-2.463c-1.276 0-3.919-.091-5.1.365a6.13 6.13 0 0 0-1 .638 2.715 2.715 0 0 0-.638 1c-.456 1.094-.365 3.828-.365 5.1s-.091 3.919.365 5.1a3.764 3.764 0 0 0 .638 1 2.715 2.715 0 0 0 1 .638c1.094.456 3.828.365 5.1.365s3.919.091 5.1-.365a6.131 6.131 0 0 0 1-.638 3.764 3.764 0 0 0 .638-1c.456-1.094.365-3.828.365-5.1s.091-3.919-.365-5.1a3.764 3.764 0 0 0-.638-1 2.36 2.36 0 0 0-1-.638c-1.176-.545-3.824-.365-5.1-.365zm8.568 7.02c0 1.185 0 2.37-.091 3.555a5.5 5.5 0 0 1-1.367 3.645 4.8 4.8 0 0 1-3.646 1.367c-1.185.091-2.37.091-3.555.091s-2.37 0-3.555-.091a5.5 5.5 0 0 1-3.645-1.367 5.175 5.175 0 0 1-1.367-3.646c-.091-1.185-.091-2.37-.091-3.555s0-2.37.091-3.555a5.5 5.5 0 0 1 1.367-3.644 5.175 5.175 0 0 1 3.646-1.367c1.185-.091 2.37-.091 3.555-.091s2.37 0 3.555.091a5.5 5.5 0 0 1 3.645 1.367 4.8 4.8 0 0 1 1.367 3.646c.091 1.182.091 2.367.091 3.554z" data-name="Path 172" transform="translate(-4.121 -4.087)"/>
        </g>
    </g>
</svg>
