<svg xmlns="http://www.w3.org/2000/svg" width="7.113" height="10.223" viewBox="0 0 7.113 10.223">
    <path id="prefix___x37__1_" fill="#4c89ea" d="M92.156 16.4a3.56 3.56 0 0 0-3.556 3.556 9.161 9.161 0 0 0 1.725 4.154c.845 1.348 1.7 2.442 1.709 2.453a.155.155 0 0 0 .123.059.155.155 0 0 0 .123-.059c.009-.011.864-1.116 1.709-2.471a9.228 9.228 0 0 0 1.725-4.136 3.56 3.56 0 0 0-3.558-3.556zm0 5.272a1.716 1.716 0 1 1 1.716-1.716 1.719 1.719 0 0 1-1.716 1.716z" transform="translate(-88.6 -16.4)"/>
</svg>
