<svg xmlns="http://www.w3.org/2000/svg" width="13.362" height="19.204" viewBox="0 0 13.362 19.204">
    <path id="prefix___x37__1_" fill="#2f5dc3" d="M95.281 16.4a6.689 6.689 0 0 0-6.681 6.681c0 1.751 1.09 4.375 3.24 7.8 1.587 2.533 3.195 4.588 3.211 4.609a.29.29 0 0 0 .23.111.29.29 0 0 0 .23-.111c.016-.021 1.624-2.1 3.211-4.642 2.15-3.441 3.24-6.056 3.24-7.771a6.689 6.689 0 0 0-6.681-6.677zm0 9.9a3.223 3.223 0 1 1 3.219-3.219 3.229 3.229 0 0 1-3.219 3.219z" transform="translate(-88.6 -16.4)"/>
</svg>
