<svg xmlns="http://www.w3.org/2000/svg" width="37" height="37" viewBox="0 0 37 37">
    <defs>
        <clipPath id="prefix__clip-path">
            <circle id="prefix__Ellipse_5" cx="18.5" cy="18.5" r="18.5" fill="#ebebeb" data-name="Ellipse 5" transform="translate(-.431 -.317)"/>
        </clipPath>
        <style>
            .prefix__cls-3{fill:#fff}.prefix__cls-5{fill:#bd081c}
        </style>
    </defs>
    <g id="prefix__Mask_Group_5" clip-path="url(#prefix__clip-path)" data-name="Mask Group 5" transform="translate(.431 .317)">
        <g id="prefix__g62" transform="translate(0 .183)">
            <g id="prefix__XMLID_1_">
                <g id="prefix__Group_91" data-name="Group 91">
                    <path id="prefix__Path_175" d="M-127.546-312.185a17.875 17.875 0 0 1 5.939 13.34 18.133 18.133 0 0 1-18.093 18.092h-2.376a.549.549 0 0 1-.365-.091.336.336 0 0 1-.274-.091.336.336 0 0 1-.274-.091.691.691 0 0 1-.365-.091.336.336 0 0 1-.274-.091c-.091 0-.183-.091-.274-.091-.365-.091-.64-.183-.914-.274a22.907 22.907 0 0 0 2.284-4.751c.183-.822 1.1-4.294 1.1-4.294a4.81 4.81 0 0 0 4.112 2.1c5.482 0 9.411-5.025 9.411-11.239 0-5.939-4.843-10.416-11.147-10.416-7.767 0-11.97 5.208-11.97 10.965 0 2.65 1.371 5.939 3.655 7.036.365.183.548.091.64-.274.091-.274.365-1.462.457-2.01a1.159 1.159 0 0 0-.091-.548 7.13 7.13 0 0 1-1.371-4.112 7.805 7.805 0 0 1 8.132-7.858c4.477 0 7.584 3.015 7.584 7.4 0 4.934-2.467 8.315-5.665 8.315a2.619 2.619 0 0 1-2.65-3.289c.548-2.193 1.462-4.477 1.462-6.031a2.281 2.281 0 0 0-2.284-2.558c-1.827 0-3.289 1.919-3.289 4.386a5.958 5.958 0 0 0 .548 2.65s-1.827 7.584-2.1 8.954a19.952 19.952 0 0 0-.091 5.208c-.091 0-.183-.091-.274-.091s-.091 0-.183-.091c-.091 0-.091-.091-.183-.091s-.183-.091-.274-.091-.091-.091-.183-.091a.089.089 0 0 1-.091-.091.089.089 0 0 1-.091-.091.319.319 0 0 1-.183-.091.089.089 0 0 1-.091-.091c-.091 0-.183-.091-.274-.091-.091-.091-.183-.091-.274-.183-.091-.091-.183-.091-.274-.183s-.183-.091-.274-.183a.693.693 0 0 0-.365-.183c-.091-.091-.183-.091-.274-.183l-.822-.548c-.091-.091-.183-.091-.274-.183s-.183-.091-.274-.183c-.091-.091-.183-.091-.274-.183s-.183-.183-.274-.183-.183-.183-.274-.183c-.091-.091-.183-.183-.274-.183-.457-.457-.914-.914-1.371-1.462-.091-.091-.183-.183-.183-.274-.183-.183-.274-.366-.457-.548l-.822-1.1c0-.091-.091-.091-.091-.183-.091-.091-.091-.183-.183-.274s-.091-.183-.183-.274-.091-.183-.183-.274c-.091-.183-.183-.274-.274-.457s-.183-.274-.274-.457c0-.091-.091-.091-.091-.183-.183-.457-.365-.822-.548-1.279a.089.089 0 0 0-.091-.091c-.091-.091-.091-.274-.183-.366 0-.091-.091-.091-.091-.183a1.694 1.694 0 0 1-.183-.64c0-.091-.091-.183-.091-.274s-.091-.274-.091-.366a.336.336 0 0 0-.091-.274v-.091c0-.091 0-.091-.091-.183 0-.091 0-.183-.091-.183v-.091a.336.336 0 0 0-.091-.274v-.366c0-.183-.091-.274-.091-.457v-.183c0-.183-.091-.365-.091-.548v-.183a1.555 1.555 0 0 0-.091-.64v-1.096A17.875 17.875 0 0 1-151.942-312c.183-.183.365-.274.457-.457.183-.183.365-.274.548-.457.183-.091.365-.274.548-.365s.365-.274.548-.365c.091-.091.274-.183.365-.274.274-.183.457-.274.731-.457a.692.692 0 0 1 .365-.183c.091 0 .274-.183.365-.183l.548-.274c.091-.091.274-.091.365-.183.091 0 .091-.091.183-.091.091-.091.274-.091.366-.183a.319.319 0 0 0 .183-.091 1.694 1.694 0 0 1 .64-.183.824.824 0 0 1 .457-.091l1.1-.274c.183 0 .274-.091.457-.091a18.342 18.342 0 0 1 3.838-.457 17.644 17.644 0 0 1 3.838.457c.183 0 .274.091.457.091l1.1.274c.183 0 .274.091.457.091a1.694 1.694 0 0 0 .64.183.319.319 0 0 1 .183.091c.091.091.274.091.365.183.091 0 .091.091.183.091.091.091.274.091.365.183l.548.274c.091.091.274.091.365.183a.693.693 0 0 0 .365.183c.274.183.457.274.731.457.091.091.274.183.365.274.183.091.365.274.548.365s.365.274.548.365a2.422 2.422 0 0 1 .548.457.691.691 0 0 1 .726.272z" class="prefix__cls-3" data-name="Path 175" transform="translate(157.882 316.663)"/>
                    <path id="prefix__Path_176" d="M-116-311.01c.183.183.365.274.457.457a1.1 1.1 0 0 0-.457-.457z" class="prefix__cls-3" data-name="Path 176" transform="translate(145.79 315.031)"/>
                    <path id="prefix__Path_177" d="M-117.416-312.166c.183.091.365.274.548.365-.182-.091-.365-.274-.548-.365z" class="prefix__cls-3" data-name="Path 177" transform="translate(146.198 315.364)"/>
                    <path id="prefix__Path_178" d="M-118.7-313.066c.091.091.274.183.365.274a1.261 1.261 0 0 0-.365-.274z" class="prefix__cls-3" data-name="Path 178" transform="translate(146.569 315.624)"/>
                    <path id="prefix__Path_179" d="M-119.728-313.708c.274.183.457.274.731.457a8.434 8.434 0 0 1-.731-.457z" class="prefix__cls-3" data-name="Path 179" transform="translate(146.866 315.81)"/>
                    <path id="prefix__Path_180" fill="#0a315f" d="M-125.515-297.162c0 6.213-3.929 11.239-9.411 11.239a4.606 4.606 0 0 1-4.112-2.1s-.914 3.472-1.1 4.294a19.075 19.075 0 0 1-2.284 4.751c.274.091.64.183.914.274a20.557 20.557 0 0 1-2.193-.731 16.648 16.648 0 0 1 .091-5.208c.365-1.371 2.1-8.954 2.1-8.954a6.461 6.461 0 0 1-.548-2.65c0-2.558 1.462-4.386 3.289-4.386a2.281 2.281 0 0 1 2.284 2.558c0 1.553-1.005 3.838-1.462 6.031a2.619 2.619 0 0 0 2.65 3.289c3.2 0 5.665-3.381 5.665-8.315a7.2 7.2 0 0 0-7.584-7.4 7.805 7.805 0 0 0-8.132 7.858 7.13 7.13 0 0 0 1.371 4.112.431.431 0 0 1 .091.548 14.29 14.29 0 0 0-.457 2.01c-.091.365-.274.365-.64.274-2.284-1.005-3.655-4.386-3.655-7.036 0-5.665 4.112-10.965 11.97-10.965 6.31.09 11.153 4.476 11.153 10.507z" data-name="Path 180" transform="translate(155.211 314.066)"/>
                    <path id="prefix__Path_181" d="M-120.242-313.965a.693.693 0 0 0 .365.183.693.693 0 0 1-.365-.183z" class="prefix__cls-3" data-name="Path 181" transform="translate(147.014 315.884)"/>
                    <path id="prefix__Path_182" d="M-121.655-314.607l.548.274a3.042 3.042 0 0 0-.548-.274z" class="prefix__cls-3" data-name="Path 182" transform="translate(147.422 316.069)"/>
                    <path id="prefix__Path_183" d="M-122.169-314.864c.091.091.274.091.365.183a.693.693 0 0 0-.365-.183z" class="prefix__cls-3" data-name="Path 183" transform="translate(147.57 316.143)"/>
                    <path id="prefix__Path_184" d="M-123.068-315.249c.091.091.274.091.365.183-.091-.092-.182-.092-.365-.183z" class="prefix__cls-3" data-name="Path 184" transform="translate(147.83 316.255)"/>
                    <path id="prefix__Path_185" d="M-124.224-315.635a1.694 1.694 0 0 0 .64.183 1.694 1.694 0 0 0-.64-.183z" class="prefix__cls-3" data-name="Path 185" transform="translate(148.164 316.366)"/>
                    <path id="prefix__Path_186" d="M-124.867-315.892c.183 0 .274.091.457.091a.993.993 0 0 1-.457-.091z" class="prefix__cls-3" data-name="Path 186" transform="translate(148.349 316.44)"/>
                    <path id="prefix__Path_187" d="M-126.922-316.406c.183 0 .274.091.457.091a.993.993 0 0 0-.457-.091z" class="prefix__cls-3" data-name="Path 187" transform="translate(148.943 316.588)"/>
                    <path id="prefix__Path_194" d="M-136.685-266.562a.336.336 0 0 1 .274.091c-.089.001-.183-.091-.274-.091z" class="prefix__cls-3" data-name="Path 194" transform="translate(151.762 302.197)"/>
                    <path id="prefix__Path_195" d="M-137.2-266.69a.336.336 0 0 1 .274.091.451.451 0 0 1-.274-.091z" class="prefix__cls-3" data-name="Path 195" transform="translate(151.91 302.234)"/>
                    <path id="prefix__Path_196" d="M-137.584-266.69a.691.691 0 0 1 .365.091.691.691 0 0 0-.365-.091z" class="prefix__cls-3" data-name="Path 196" transform="translate(152.021 302.234)"/>
                    <path id="prefix__Path_197" d="M-138.1-266.819c.091 0 .183.091.274.091a.336.336 0 0 0-.274-.091z" class="prefix__cls-3" data-name="Path 197" transform="translate(152.17 302.271)"/>
                    <path id="prefix__Path_198" d="M-138.484-266.947c.091 0 .183.091.274.091-.09 0-.182-.091-.274-.091z" class="prefix__cls-3" data-name="Path 198" transform="translate(152.281 302.309)"/>
                    <path id="prefix__Path_199" d="M-138.355-316.314c.183 0 .274-.091.457-.091a.685.685 0 0 0-.457.091z" class="prefix__cls-3" data-name="Path 199" transform="translate(152.244 316.588)"/>
                    <path id="prefix__Path_200" d="M-140.539-315.672a.824.824 0 0 1 .457-.091.824.824 0 0 0-.457.091z" class="prefix__cls-3" data-name="Path 200" transform="translate(152.874 316.403)"/>
                    <path id="prefix__Path_201" d="M-141.438-315.452a1.694 1.694 0 0 1 .64-.183 2.324 2.324 0 0 0-.64.183z" class="prefix__cls-3" data-name="Path 201" transform="translate(153.134 316.366)"/>
                    <path id="prefix__Path_202" d="M-142.209-315.067c.091-.091.274-.091.365-.183-.091.092-.274.092-.365.183z" class="prefix__cls-3" data-name="Path 202" transform="translate(153.357 316.255)"/>
                    <path id="prefix__Path_203" d="M-142.209-268.1c.091 0 .091 0 .183.091-.092-.091-.092-.091-.183-.091z" class="prefix__cls-5" data-name="Path 203" transform="translate(153.357 302.642)"/>
                    <path id="prefix__Path_204" d="M-142.466-268.232c.091 0 .091.091.183.091-.092-.091-.092-.091-.183-.091z" class="prefix__cls-3" data-name="Path 204" transform="translate(153.431 302.679)"/>
                    <path id="prefix__Path_205" d="M-143.108-314.681c.091-.091.274-.091.365-.183a.692.692 0 0 0-.365.183z" class="prefix__cls-3" data-name="Path 205" transform="translate(153.616 316.143)"/>
                    <path id="prefix__Path_206" d="M-143.108-268.489c.091 0 .091.091.183.091-.001-.091-.092-.091-.183-.091z" class="prefix__cls-5" data-name="Path 206" transform="translate(153.616 302.754)"/>
                    <path id="prefix__Path_207" d="M-143.365-268.746a.089.089 0 0 1 .091.091.089.089 0 0 1-.091-.091z" class="prefix__cls-5" data-name="Path 207" transform="translate(153.69 302.828)"/>
                    <path id="prefix__Path_208" d="M-144.008-314.333l.548-.274a1.487 1.487 0 0 1-.548.274z" class="prefix__cls-3" data-name="Path 208" transform="translate(153.876 316.069)"/>
                    <path id="prefix__Path_209" d="M-143.879-268.874a.089.089 0 0 1 .091.091.089.089 0 0 0-.091-.091z" class="prefix__cls-5" data-name="Path 209" transform="translate(153.839 302.865)"/>
                    <path id="prefix__Path_210" d="M-144.65-269.26c.091.091.183.091.274.183-.091-.091-.183-.183-.274-.183z" class="prefix__cls-3" data-name="Path 210" transform="translate(154.061 302.976)"/>
                    <path id="prefix__Path_211" d="M-145.035-269.516c.091.091.183.091.274.183-.092-.092-.183-.183-.274-.183z" class="prefix__cls-3" data-name="Path 211" transform="translate(154.173 303.05)"/>
                    <path id="prefix__Path_212" d="M-145.035-313.782a.692.692 0 0 1 .365-.183.693.693 0 0 1-.365.183z" class="prefix__cls-3" data-name="Path 212" transform="translate(154.173 315.884)"/>
                    <path id="prefix__Path_213" d="M-145.421-269.773c.091.091.183.091.274.183-.091-.092-.182-.092-.274-.183z" class="prefix__cls-3" data-name="Path 213" transform="translate(154.284 303.124)"/>
                    <path id="prefix__Path_214" d="M-146.063-313.251c.274-.183.457-.274.731-.457a3.206 3.206 0 0 1-.731.457z" class="prefix__cls-3" data-name="Path 214" transform="translate(154.469 315.81)"/>
                    <path id="prefix__Path_215" d="M-146.191-270.287c.091.091.183.091.274.183-.183-.096-.274-.096-.274-.183z" class="prefix__cls-3" data-name="Path 215" transform="translate(154.506 303.273)"/>
                    <path id="prefix__Path_216" d="M-146.577-312.791c.091-.091.274-.183.365-.274-.088.091-.273.182-.365.274z" class="prefix__cls-3" data-name="Path 216" transform="translate(154.618 315.624)"/>
                    <path id="prefix__Path_217" d="M-147.348-271.058l.822.548z" class="prefix__cls-3" data-name="Path 217" transform="translate(154.84 303.495)"/>
                    <path id="prefix__Path_218" d="M-147.733-271.443c.091.091.183.091.274.183-.091-.001-.183-.092-.274-.183z" class="prefix__cls-3" data-name="Path 218" transform="translate(154.951 303.607)"/>
                    <path id="prefix__Path_219" d="M-148.118-271.7c.091.091.183.091.274.183-.092-.001-.183-.092-.274-.183z" class="prefix__cls-3" data-name="Path 219" transform="translate(155.063 303.681)"/>
                    <path id="prefix__Path_220" d="M-148.118-311.8c.183-.091.365-.274.548-.365-.183.09-.366.273-.548.365z" class="prefix__cls-3" data-name="Path 220" transform="translate(155.063 315.364)"/>
                    <path id="prefix__Path_221" d="M-148.5-271.957c.091.091.183.091.274.183-.095-.092-.186-.092-.274-.183z" class="prefix__cls-3" data-name="Path 221" transform="translate(155.174 303.755)"/>
                    <path id="prefix__Path_222" d="M-148.889-272.214c.091.091.183.183.274.183-.091-.092-.185-.183-.274-.183z" class="prefix__cls-3" data-name="Path 222" transform="translate(155.285 303.829)"/>
                    <path id="prefix__Path_223" d="M-149.275-272.6c.091.091.183.183.274.183-.091 0-.182-.091-.274-.183z" class="prefix__cls-3" data-name="Path 223" transform="translate(155.397 303.94)"/>
                    <path id="prefix__Path_224" d="M-149.532-272.857c.091.091.183.183.274.183a.7.7 0 0 1-.274-.183z" class="prefix__cls-3" data-name="Path 224" transform="translate(155.471 304.015)"/>
                    <path id="prefix__Path_225" d="M-149.4-310.553c.183-.183.365-.274.457-.457a1.1 1.1 0 0 0-.457.457z" class="prefix__cls-3" data-name="Path 225" transform="translate(155.434 315.031)"/>
                    <path id="prefix__Path_226" d="M-150.088-273.45c-.457-.457-.914-.914-1.371-1.462a6.87 6.87 0 0 0 1.371 1.462z" class="prefix__cls-3" data-name="Path 226" transform="translate(156.027 304.608)"/>
                    <path id="prefix__Path_227" d="M-151.844-275.3c.091.091.183.183.183.274 0-.089-.091-.18-.183-.274z" class="prefix__cls-3" data-name="Path 227" transform="translate(156.138 304.719)"/>
                    <path id="prefix__Path_228" d="M-152.486-275.94a2.423 2.423 0 0 0 .457.548 2.9 2.9 0 0 0-.457-.548z" class="prefix__cls-3" data-name="Path 228" transform="translate(156.324 304.905)"/>
                    <path id="prefix__Path_229" d="M-153.514-277.481l.822 1.1a8.573 8.573 0 0 1-.822-1.1z" class="prefix__cls-3" data-name="Path 229" transform="translate(156.621 305.35)"/>
                    <path id="prefix__Path_230" d="M-153.9-278.124c.091.091.091.183.183.274-.091-.091-.091-.182-.183-.274z" class="prefix__cls-3" data-name="Path 230" transform="translate(156.732 305.535)"/>
                    <path id="prefix__Path_231" d="M-154.23-278.62c-.091-.091-.091-.183-.183-.274.091.094.091.182.183.274z" class="prefix__cls-3" data-name="Path 231" transform="translate(156.88 305.758)"/>
                    <path id="prefix__Path_232" d="M-154.8-279.537c.091.183.183.274.274.457-.09-.183-.181-.274-.274-.457z" class="prefix__cls-3" data-name="Path 232" transform="translate(156.991 305.943)"/>
                    <path id="prefix__Path_233" d="M-155.184-280.307c0 .091.091.091.091.183a.319.319 0 0 0-.091-.183z" class="prefix__cls-3" data-name="Path 233" transform="translate(157.103 306.166)"/>
                    <path id="prefix__Path_234" d="M-156.083-282.363a.089.089 0 0 0 .091.091z" class="prefix__cls-3" data-name="Path 234" transform="translate(157.362 306.759)"/>
                    <path id="prefix__Path_235" d="M-156.34-283.134c0 .091.091.091.091.183-.091-.091-.091-.091-.091-.183z" class="prefix__cls-5" data-name="Path 235" transform="translate(157.437 306.982)"/>
                    <path id="prefix__Path_236" d="M-156.854-284.547c0 .091.091.183.091.274a.336.336 0 0 0-.091-.274z" class="prefix__cls-3" data-name="Path 236" transform="translate(157.585 307.39)"/>
                    <path id="prefix__Path_237" d="M-157.02-285.172a.336.336 0 0 0-.091-.274.336.336 0 0 1 .091.274z" class="prefix__cls-3" data-name="Path 237" transform="translate(157.659 307.65)"/>
                    <path id="prefix__Path_238" d="M-157.111-285.831c0 .091 0 .091.091.183-.091-.092-.091-.092-.091-.183z" class="prefix__cls-5" data-name="Path 238" transform="translate(157.659 307.761)"/>
                    <path id="prefix__Path_239" d="M-157.239-286.217c0 .091 0 .183.091.183a.319.319 0 0 1-.091-.183z" class="prefix__cls-5" data-name="Path 239" transform="translate(157.696 307.872)"/>
                    <path id="prefix__Path_241" d="M-157.368-286.731a.336.336 0 0 0 .091.274.336.336 0 0 0-.091-.274z" class="prefix__cls-3" data-name="Path 241" transform="translate(157.733 308.02)"/>
                </g>
            </g>
        </g>
    </g>
</svg>
