<svg width="28" height="24" viewBox="0 0 28 24" fill="none" xmlns="http://www.w3.org/2000/svg">
<g clip-path="url(#clip0)">
<path d="M13.8262 5C13.0418 5 12.2771 5.15686 11.532 5.47059L8.82615 2.76471C10.434 2.17647 12.0811 1.88235 13.7673 1.88235C16.8654 1.88235 19.6693 2.7549 22.1791 4.5C24.6889 6.2451 26.4928 8.5098 27.5909 11.2941C26.6889 13.6471 25.2575 15.6275 23.2967 17.2353L19.6497 13.5882C19.9242 12.8431 20.0614 12.0784 20.0614 11.2941C20.0614 9.56863 19.4536 8.08824 18.2379 6.85294C17.0222 5.61765 15.5516 5 13.8262 5ZM1.23792 1.58824L2.82615 0L25.1203 22.2353L23.532 23.8235L19.8262 20.1765L19.2967 19.6471C17.532 20.3529 15.7085 20.7059 13.8262 20.7059C10.7281 20.7059 7.92419 19.8333 5.41439 18.0882C2.90459 16.3431 1.10066 14.0784 0.00262451 11.2941C0.983017 8.78431 2.55164 6.70588 4.70851 5.05882L4.12027 4.47059L1.23792 1.58824ZM8.1791 8.52941C7.74772 9.43137 7.53204 10.3529 7.53204 11.2941C7.53204 13.0196 8.14968 14.5 9.38498 15.7353C10.6203 16.9706 12.1007 17.5882 13.8262 17.5882C14.7673 17.5882 15.6889 17.3529 16.5909 16.8824L14.6497 14.9412C14.336 15.0196 14.0614 15.0588 13.8262 15.0588C12.7673 15.0588 11.8752 14.6961 11.1497 13.9706C10.4242 13.2451 10.0614 12.3529 10.0614 11.2941C10.0614 11.0196 10.0811 10.7451 10.1203 10.4706L8.1791 8.52941ZM13.5909 7.52941H13.8262C14.8458 7.52941 15.7281 7.90196 16.4732 8.64706C17.2183 9.39216 17.5909 10.2745 17.5909 11.2941L17.532 11.5294L13.5909 7.52941Z" fill="#707070"/>
</g>
<defs>
<clipPath id="clip0">
<rect width="27.77" height="24" fill="white"/>
</clipPath>
</defs>
</svg>
