<svg width="29" height="27" viewBox="0 0 29 27" fill="none" xmlns="http://www.w3.org/2000/svg">
<path d="M27.3333 11.9834C27.643 11.7526 27.8728 11.4308 27.9903 11.0629C28.1079 10.695 28.1074 10.2995 27.9888 9.93195C27.8703 9.56438 27.6397 9.24312 27.3293 9.01323C27.019 8.78333 26.6445 8.65633 26.2583 8.65002L18.7583 8.36669C18.7214 8.36414 18.6861 8.35099 18.6565 8.32881C18.627 8.30663 18.6044 8.27638 18.5917 8.24169L16 1.24169C15.8698 0.885554 15.6333 0.578035 15.3225 0.360767C15.0117 0.1435 14.6417 0.0269775 14.2625 0.0269775C13.8833 0.0269775 13.5133 0.1435 13.2025 0.360767C12.8917 0.578035 12.6552 0.885554 12.525 1.24169L9.94166 8.26669C9.92889 8.30137 9.90636 8.33163 9.87679 8.35381C9.84722 8.37599 9.81187 8.38914 9.77499 8.39169L2.27499 8.67502C1.88883 8.68133 1.51432 8.80833 1.20398 9.03823C0.893647 9.26812 0.66304 9.58938 0.544498 9.95695C0.425956 10.3245 0.425424 10.72 0.542977 11.0879C0.660529 11.4558 0.890272 11.7776 1.19999 12.0084L7.08332 16.6334C7.11277 16.6565 7.13477 16.6878 7.14662 16.7234C7.15847 16.7589 7.15964 16.7971 7.14999 16.8334L5.12499 24.0084C5.02005 24.3737 5.03022 24.7625 5.1541 25.1219C5.27799 25.4813 5.50958 25.7938 5.81736 26.0169C6.12515 26.24 6.49419 26.3629 6.87428 26.3688C7.25438 26.3747 7.62707 26.2634 7.94166 26.05L14.1583 21.8834C14.1889 21.8622 14.2253 21.8509 14.2625 21.8509C14.2997 21.8509 14.336 21.8622 14.3667 21.8834L20.5833 26.05C20.8937 26.2707 21.265 26.3893 21.6458 26.3893C22.0266 26.3893 22.398 26.2707 22.7083 26.05C23.0162 25.829 23.248 25.5181 23.3719 25.1599C23.4957 24.8017 23.5056 24.414 23.4 24.05L21.3583 16.85C21.3475 16.8139 21.3481 16.7753 21.36 16.7395C21.372 16.7037 21.3946 16.6724 21.425 16.65L27.3333 11.9834Z" fill="#FFC936"/>
</svg>
