<svg width="74" height="74" viewBox="0 0 74 74" fill="none" xmlns="http://www.w3.org/2000/svg">
<g clip-path="url(#clip0)">
<path d="M36.9375 -0.0625C16.5359 -0.0625 -0.0625 16.5359 -0.0625 36.9375C-0.0625 57.3391 16.5359 73.9375 36.9375 73.9375C57.3391 73.9375 73.9375 57.3391 73.9375 36.9375C73.9375 16.5359 57.3391 -0.0625 36.9375 -0.0625ZM56.1935 24.5372L32.2858 52.9987C32.0236 53.3111 31.6972 53.5634 31.3289 53.7387C30.9607 53.9139 30.559 54.0079 30.1512 54.0144H30.1032C29.7042 54.0143 29.3098 53.9303 28.9454 53.7679C28.5811 53.6054 28.2549 53.3682 27.9881 53.0716L17.742 41.687C17.4818 41.411 17.2793 41.0858 17.1466 40.7305C17.0139 40.3751 16.9535 39.9968 16.9691 39.6178C16.9846 39.2388 17.0758 38.8668 17.2372 38.5235C17.3986 38.1802 17.627 37.8727 17.909 37.6189C18.1909 37.3652 18.5207 37.1704 18.8791 37.0459C19.2374 36.9215 19.617 36.8699 19.9955 36.8943C20.3741 36.9186 20.7439 37.0184 21.0834 37.1877C21.4228 37.357 21.7249 37.5925 21.9721 37.8803L30.0285 46.8314L51.8353 20.8763C52.3245 20.3108 53.0165 19.9604 53.7619 19.901C54.5073 19.8416 55.2461 20.078 55.8186 20.5589C56.3911 21.0398 56.7514 21.7267 56.8216 22.4712C56.8917 23.2156 56.6661 23.9577 56.1935 24.5372V24.5372Z" fill="#1F87E1"/>
</g>
<defs>
<clipPath id="clip0">
<rect width="74" height="74" fill="white"/>
</clipPath>
</defs>
</svg>
