<svg xmlns="http://www.w3.org/2000/svg" width="36" height="36" viewBox="0 0 36 36">
    <defs>
        <clipPath id="prefix__clip-path">
            <circle id="prefix__Ellipse_3" cx="18" cy="18" r="18" fill="#ebebeb" data-name="Ellipse 3" transform="translate(-.08 .451)"/>
        </clipPath>
    </defs>
    <g id="prefix__Mask_Group_4" clip-path="url(#prefix__clip-path)" data-name="Mask Group 4" transform="translate(.08 -.451)">
        <g id="prefix__Linkedin-01" fill-rule="evenodd" transform="translate(.182)">
            <path id="prefix__Path_173" fill="#fff" d="M.384 18.266a17.956 17.956 0 1 1 35.91 0 17.956 17.956 0 1 1-35.91 0z" data-name="Path 173" transform="translate(-.384 -.128)"/>
            <path id="prefix__Path_174" fill="#0a315f" d="M16.494 19.672V31.7h-3.919V19.672zm.273-3.737a2.062 2.062 0 0 1-2.279 2.1 2.034 2.034 0 0 1-2.187-2.1 2.112 2.112 0 0 1 2.279-2.1 2.034 2.034 0 0 1 2.188 2.1zM30.8 24.776V31.7h-4.01v-6.468c0-1.641-.547-2.734-2.005-2.734a2.1 2.1 0 0 0-2.005 1.458 3.417 3.417 0 0 0-.091 1V31.7h-4.01s.091-10.937 0-12.031h4.01v1.641a3.941 3.941 0 0 1 3.555-2.005c2.646.095 4.556 1.734 4.556 5.471z" data-name="Path 174" transform="translate(-3.825 -4.087)"/>
        </g>
    </g>
</svg>
