<svg xmlns="http://www.w3.org/2000/svg" width="15.833" height="16.225" viewBox="0 0 15.833 16.225">
    <defs>
        <style>
            .prefix__cls-1{fill:none;stroke:#2bb673;stroke-linecap:round;stroke-linejoin:round;stroke-miterlimit:10;stroke-width:2px}
        </style>
    </defs>
    <g id="prefix___x31_4" transform="translate(1 1)">
        <path id="prefix__Path_6" d="M58.452 48.025H46.181a.781.781 0 0 1-.781-.781V34.581a.781.781 0 0 1 .781-.781h12.271a.781.781 0 0 1 .781.781v12.66a.782.782 0 0 1-.781.784z" class="prefix__cls-1" data-name="Path 6" transform="translate(-45.4 -33.8)"/>
        <path id="prefix__Line_9" d="M0 0L4.665 0" class="prefix__cls-1" data-name="Line 9" transform="translate(4.584 3.343)"/>
        <path id="prefix__Line_10" d="M0 0L2.65 0" class="prefix__cls-1" data-name="Line 10" transform="translate(10.956 3.36)"/>
        <path id="prefix__Line_11" d="M0 0L2.65 0" class="prefix__cls-1" data-name="Line 11" transform="translate(.23 3.36)"/>
        <path id="prefix__Path_7" d="M137.2 98.288h-.531a.475.475 0 0 1-.473-.473v-1.542a.475.475 0 0 1 .473-.473h.531a.475.475 0 0 1 .473.473v1.542a.473.473 0 0 1-.473.473z" class="prefix__cls-1" data-name="Path 7" transform="translate(-133.13 -93.704)"/>
        <path id="prefix__Path_8" d="M321.1 98.288h-.531a.475.475 0 0 1-.473-.473v-1.542a.475.475 0 0 1 .473-.473h.531a.475.475 0 0 1 .473.473v1.542a.47.47 0 0 1-.473.473z" class="prefix__cls-1" data-name="Path 8" transform="translate(-310.814 -93.704)"/>
        <path id="prefix__Rectangle_48" d="M0 0H9.587V5.771H0z" class="prefix__cls-1" data-name="Rectangle 48" transform="translate(2.123 6.261)"/>
        <path id="prefix__Line_12" d="M0 0L0 5.507" class="prefix__cls-1" data-name="Line 12" transform="translate(5.338 6.393)"/>
        <path id="prefix__Line_13" d="M0 0L0 5.507" class="prefix__cls-1" data-name="Line 13" transform="translate(8.495 6.393)"/>
        <path id="prefix__Line_14" d="M9.459 0L0 0" class="prefix__cls-1" data-name="Line 14" transform="translate(2.187 9.148)"/>
    </g>
</svg>
