<svg width="30" height="24" viewBox="0 0 30 24" fill="none" xmlns="http://www.w3.org/2000/svg">
<g clip-path="url(#clip0)">
<path d="M14.6875 2C17.9792 2 20.9479 2.92708 23.5938 4.78125C26.2396 6.63542 28.1458 9.04167 29.3125 12C28.1458 14.9583 26.2396 17.3646 23.5938 19.2188C20.9479 21.0729 17.9792 22 14.6875 22C11.3958 22 8.41667 21.0729 5.75 19.2188C3.08333 17.3646 1.16667 14.9583 0 12C1.16667 9.04167 3.08333 6.63542 5.75 4.78125C8.41667 2.92708 11.3958 2 14.6875 2ZM14.6875 18.6875C16.5208 18.6875 18.0833 18.0312 19.375 16.7188C20.6667 15.4062 21.3125 13.8333 21.3125 12C21.3125 10.1667 20.6667 8.59375 19.375 7.28125C18.0833 5.96875 16.5208 5.3125 14.6875 5.3125C12.8542 5.3125 11.2812 5.96875 9.96875 7.28125C8.65625 8.59375 8 10.1667 8 12C8 13.8333 8.65625 15.4062 9.96875 16.7188C11.2812 18.0312 12.8542 18.6875 14.6875 18.6875ZM14.6562 8C15.7604 8 16.7083 8.38542 17.5 9.15625C18.2917 9.92708 18.6875 10.875 18.6875 12C18.6875 13.125 18.2917 14.0729 17.5 14.8438C16.7083 15.6146 15.7604 16 14.6562 16C13.5521 16 12.6146 15.6146 11.8438 14.8438C11.0729 14.0729 10.6875 13.125 10.6875 12C10.6875 10.875 11.0729 9.92708 11.8438 9.15625C12.6146 8.38542 13.5521 8 14.6562 8Z" fill="#707070"/>
</g>
<defs>
<clipPath id="clip0">
<rect width="29.5" height="24" fill="white"/>
</clipPath>
</defs>
</svg>
