<svg width="74" height="74" viewBox="0 0 74 74" fill="none" xmlns="http://www.w3.org/2000/svg">
<circle cx="35" cy="35" r="35" fill="#F0F0F0"/>
<path d="M35 32C32.0826 32 29.2847 30.8411 27.2218 28.7782C25.1589 26.7153 24 23.9174 24 21C24 18.0826 25.1589 15.2847 27.2218 13.2218C29.2847 11.1589 32.0826 10 35 10C37.9174 10 40.7153 11.1589 42.7782 13.2218C44.8411 15.2847 46 18.0826 46 21C46 23.9174 44.8411 26.7153 42.7782 28.7782C40.7153 30.8411 37.9174 32 35 32ZM35 40.25C43.7615 40.25 51.6237 41.8202 57 48.6732V54H13V48.6732C18.3763 41.8175 26.2385 40.25 35 40.25Z" fill="#CCCCCC"/>
</svg>
